black-display vv(110.0--61.0)-(105.0-100.0)-10.0-0.0-(0.0-0.0).ufo
<glyph name="be-cy.sc" format="1">
  <advance width="1411"/>
  <outline>
    <contour>
      <point x="677" y="-144" type="move" name="mark0"/>
    </contour>
    <contour>
      <point x="604" y="774" type="curve"/>
      <point x="604" y="1240" type="line"/>
      <point x="945" y="1233" type="line"/>
      <point x="1005" y="1001" type="line"/>
      <point x="1219" y="1001" type="line"/>
      <point x="1197" y="1292" type="line"/>
      <point x="69" y="1292" type="line"/>
      <point x="69" y="1242" type="line"/>
      <point x="222" y="1228" type="line"/>
      <point x="222" y="66" type="line"/>
      <point x="69" y="52" type="line"/>
      <point x="69" y="0" type="line"/>
      <point x="425" y="0" type="line" smooth="yes"/>
      <point x="508" y="0"/>
      <point x="803" y="-14"/>
      <point x="849" y="-14" type="curve" smooth="yes"/>
      <point x="1145" y="-14"/>
      <point x="1353" y="128"/>
      <point x="1353" y="415" type="curve" smooth="yes"/>
      <point x="1353" y="646"/>
      <point x="1191" y="799"/>
      <point x="843" y="799" type="curve" smooth="yes"/>
      <point x="812" y="799"/>
      <point x="618" y="785"/>
    </contour>
    <contour>
      <point x="604" y="67" type="curve"/>
      <point x="604" y="704" type="line"/>
      <point x="611" y="713"/>
      <point x="705" y="717"/>
      <point x="731" y="717" type="curve" smooth="yes"/>
      <point x="891" y="717"/>
      <point x="962" y="619"/>
      <point x="962" y="407" type="curve" smooth="yes"/>
      <point x="962" y="152"/>
      <point x="915" y="51"/>
      <point x="712" y="51" type="curve" smooth="yes"/>
      <point x="650" y="51"/>
      <point x="623" y="61"/>
    </contour>
  </outline>
</glyph>
<glyph name="che-cy.sc" format="1">
  <advance width="1488"/>
  <outline>
    <contour>
      <point x="724" y="1263" type="move" name="top"/>
    </contour>
    <contour>
      <point x="747" y="648" type="move" name="center"/>
    </contour>
    <contour>
      <point x="1442" y="0" type="move" name="bottomright"/>
    </contour>
    <contour>
      <point x="900" y="602" type="curve"/>
      <point x="900" y="68" type="line"/>
      <point x="693" y="52" type="line"/>
      <point x="693" y="0" type="line"/>
      <point x="1425" y="0" type="line"/>
      <point x="1425" y="53" type="line"/>
      <point x="1283" y="68" type="line"/>
      <point x="1283" y="1228" type="line"/>
      <point x="1424" y="1242" type="line"/>
      <point x="1424" y="1292" type="line"/>
      <point x="759" y="1292" type="line"/>
      <point x="759" y="1242" type="line"/>
      <point x="900" y="1227" type="line"/>
      <point x="900" y="657" type="line"/>
      <point x="865" y="630"/>
      <point x="795" y="601"/>
      <point x="710" y="601" type="curve" smooth="yes"/>
      <point x="551" y="601"/>
      <point x="524" y="655"/>
      <point x="524" y="969" type="curve" smooth="yes"/>
      <point x="524" y="1224" type="line"/>
      <point x="642" y="1242" type="line"/>
      <point x="642" y="1292" type="line"/>
      <point x="36" y="1292" type="line"/>
      <point x="36" y="1242" type="line"/>
      <point x="140" y="1225" type="line"/>
      <point x="140" y="928" type="line" smooth="yes"/>
      <point x="140" y="677"/>
      <point x="257" y="528"/>
      <point x="574" y="528" type="curve" smooth="yes"/>
      <point x="680" y="528"/>
      <point x="811" y="557"/>
    </contour>
  </outline>
</glyph>
<glyph name="cheabkhasian-cy.sc" format="1">
  <advance width="1675"/>
  <outline>
    <contour>
      <point x="1544" y="46" type="curve"/>
      <point x="1544" y="279" type="line"/>
      <point x="1295" y="275" type="line"/>
      <point x="1262" y="114" type="line"/>
      <point x="1225" y="83"/>
      <point x="1195" y="50"/>
      <point x="1045" y="50" type="curve" smooth="yes"/>
      <point x="866" y="50"/>
      <point x="768" y="348"/>
      <point x="751" y="656" type="curve"/>
      <point x="1591" y="654" type="line"/>
      <point x="1602" y="685"/>
      <point x="1611" y="711"/>
      <point x="1611" y="789" type="curve" smooth="yes"/>
      <point x="1601" y="1100"/>
      <point x="1330" y="1306"/>
      <point x="1044" y="1306" type="curve" smooth="yes"/>
      <point x="721" y="1306"/>
      <point x="418" y="1052"/>
      <point x="374" y="703" type="curve"/>
      <point x="253" y="705"/>
      <point x="272" y="763"/>
      <point x="272" y="816" type="curve" smooth="yes"/>
      <point x="272" y="852"/>
      <point x="310" y="909"/>
      <point x="327" y="923" type="curve"/>
      <point x="141" y="943" type="line"/>
      <point x="119" y="931"/>
      <point x="35" y="850"/>
      <point x="35" y="833" type="curve" smooth="yes"/>
      <point x="35" y="705"/>
      <point x="196" y="648"/>
      <point x="370" y="644" type="curve"/>
      <point x="389" y="270"/>
      <point x="660" y="-20"/>
      <point x="1016" y="-20" type="curve" smooth="yes"/>
      <point x="1286" y="-20"/>
      <point x="1438" y="44"/>
    </contour>
    <contour>
      <point x="1238" y="703" type="curve"/>
      <point x="746" y="703" type="line"/>
      <point x="753" y="1108"/>
      <point x="837" y="1247"/>
      <point x="1002" y="1247" type="curve" smooth="yes"/>
      <point x="1216" y="1247"/>
      <point x="1231" y="1034"/>
      <point x="1236" y="819" type="curve" smooth="yes"/>
      <point x="1238" y="777"/>
      <point x="1236" y="741"/>
    </contour>
  </outline>
</glyph>
<glyph name="chedescender-cy.sc" format="1">
  <advance width="1528"/>
  <outline>
    <contour>
      <point x="1473" y="68" type="curve"/>
      <point x="1284" y="68" type="line"/>
      <point x="1284" y="1228" type="line"/>
      <point x="1425" y="1242" type="line"/>
      <point x="1425" y="1292" type="line"/>
      <point x="758" y="1292" type="line"/>
      <point x="758" y="1242" type="line"/>
      <point x="901" y="1227" type="line"/>
      <point x="901" y="657" type="line"/>
      <point x="864" y="630"/>
      <point x="794" y="601"/>
      <point x="711" y="601" type="curve" smooth="yes"/>
      <point x="551" y="601"/>
      <point x="525" y="655"/>
      <point x="525" y="969" type="curve" smooth="yes"/>
      <point x="525" y="1224" type="line"/>
      <point x="643" y="1242" type="line"/>
      <point x="643" y="1292" type="line"/>
      <point x="37" y="1292" type="line"/>
      <point x="37" y="1242" type="line"/>
      <point x="141" y="1225" type="line"/>
      <point x="141" y="928" type="line" smooth="yes"/>
      <point x="141" y="677"/>
      <point x="257" y="528"/>
      <point x="575" y="528" type="curve" smooth="yes"/>
      <point x="680" y="528"/>
      <point x="812" y="557"/>
      <point x="901" y="602" type="curve"/>
      <point x="901" y="68" type="line"/>
      <point x="693" y="52" type="line"/>
      <point x="693" y="0" type="line"/>
      <point x="1160" y="0" type="line"/>
      <point x="1186" y="9"/>
      <point x="1226" y="-267"/>
      <point x="1228" y="-292" type="curve"/>
      <point x="1424" y="-292" type="line"/>
      <point x="1435" y="-115"/>
      <point x="1473" y="-69"/>
    </contour>
  </outline>
</glyph>
<glyph name="chedescenderabkhasian-cy.sc" format="1">
  <advance width="1675"/>
  <outline>
    <contour>
      <point x="1544" y="46" type="curve"/>
      <point x="1544" y="279" type="line"/>
      <point x="1295" y="275" type="line"/>
      <point x="1262" y="114" type="line"/>
      <point x="1225" y="83"/>
      <point x="1195" y="50"/>
      <point x="1045" y="50" type="curve" smooth="yes"/>
      <point x="866" y="50"/>
      <point x="768" y="348"/>
      <point x="751" y="656" type="curve"/>
      <point x="1591" y="654" type="line"/>
      <point x="1602" y="685"/>
      <point x="1611" y="711"/>
      <point x="1611" y="789" type="curve" smooth="yes"/>
      <point x="1601" y="1100"/>
      <point x="1330" y="1306"/>
      <point x="1044" y="1306" type="curve" smooth="yes"/>
      <point x="721" y="1306"/>
      <point x="418" y="1052"/>
      <point x="374" y="703" type="curve"/>
      <point x="253" y="705"/>
      <point x="272" y="763"/>
      <point x="272" y="816" type="curve" smooth="yes"/>
      <point x="272" y="852"/>
      <point x="310" y="909"/>
      <point x="327" y="923" type="curve"/>
      <point x="141" y="943" type="line"/>
      <point x="119" y="931"/>
      <point x="35" y="850"/>
      <point x="35" y="833" type="curve" smooth="yes"/>
      <point x="35" y="705"/>
      <point x="196" y="648"/>
      <point x="370" y="644" type="curve"/>
      <point x="389" y="266"/>
      <point x="636" y="-19"/>
      <point x="981" y="-20" type="curve"/>
      <point x="998" y="-53"/>
      <point x="1020" y="-121"/>
      <point x="1020" y="-186" type="curve" smooth="yes"/>
      <point x="1020" y="-291"/>
      <point x="978" y="-312"/>
      <point x="894" y="-312" type="curve" smooth="yes"/>
      <point x="878" y="-312"/>
      <point x="837" y="-305"/>
      <point x="816" y="-296" type="curve"/>
      <point x="816" y="-368" type="line"/>
      <point x="848" y="-378"/>
      <point x="913" y="-388"/>
      <point x="950" y="-388" type="curve" smooth="yes"/>
      <point x="1135" y="-388"/>
      <point x="1245" y="-349"/>
      <point x="1254" y="-242" type="curve" smooth="yes"/>
      <point x="1260" y="-156"/>
      <point x="1199" y="-54"/>
      <point x="1142" y="-19" type="curve"/>
      <point x="1334" y="-10"/>
      <point x="1458" y="44"/>
    </contour>
    <contour>
      <point x="1238" y="703" type="curve"/>
      <point x="746" y="703" type="line"/>
      <point x="753" y="1108"/>
      <point x="837" y="1247"/>
      <point x="1002" y="1247" type="curve" smooth="yes"/>
      <point x="1216" y="1247"/>
      <point x="1231" y="1034"/>
      <point x="1236" y="819" type="curve" smooth="yes"/>
      <point x="1238" y="777"/>
      <point x="1236" y="741"/>
    </contour>
  </outline>
</glyph>
<glyph name="chekhakassian-cy.sc" format="1">
  <advance width="1493"/>
  <outline>
    <contour>
      <point x="682" y="-144" type="move" name="mark0"/>
    </contour>
    <contour>
      <point x="980" y="0" type="curve"/>
      <point x="1425" y="0" type="line"/>
      <point x="1425" y="53" type="line"/>
      <point x="1284" y="68" type="line"/>
      <point x="1284" y="1228" type="line"/>
      <point x="1425" y="1242" type="line"/>
      <point x="1425" y="1292" type="line"/>
      <point x="758" y="1292" type="line"/>
      <point x="758" y="1242" type="line"/>
      <point x="901" y="1227" type="line"/>
      <point x="901" y="657" type="line"/>
      <point x="864" y="630"/>
      <point x="794" y="601"/>
      <point x="711" y="601" type="curve" smooth="yes"/>
      <point x="551" y="601"/>
      <point x="525" y="655"/>
      <point x="525" y="969" type="curve" smooth="yes"/>
      <point x="525" y="1224" type="line"/>
      <point x="643" y="1242" type="line"/>
      <point x="643" y="1292" type="line"/>
      <point x="37" y="1292" type="line"/>
      <point x="37" y="1242" type="line"/>
      <point x="141" y="1225" type="line"/>
      <point x="141" y="928" type="line" smooth="yes"/>
      <point x="141" y="677"/>
      <point x="257" y="528"/>
      <point x="575" y="528" type="curve" smooth="yes"/>
      <point x="680" y="528"/>
      <point x="812" y="557"/>
      <point x="901" y="602" type="curve"/>
      <point x="901" y="66" type="line"/>
      <point x="689" y="66" type="line"/>
      <point x="671" y="113"/>
      <point x="660" y="-320"/>
      <point x="660" y="-292" type="curve"/>
      <point x="865" y="-292" type="line"/>
      <point x="875" y="-255"/>
      <point x="945" y="22"/>
    </contour>
  </outline>
</glyph>
<glyph name="cheverticalstroke-cy.sc" format="1">
  <advance width="1581"/>
  <outline>
    <contour>
      <point x="771" y="-144" type="move" name="mark0"/>
    </contour>
    <contour>
      <point x="990" y="595" type="curve"/>
      <point x="990" y="63" type="line"/>
      <point x="768" y="52" type="line"/>
      <point x="768" y="0" type="line"/>
      <point x="1517" y="0" type="line"/>
      <point x="1517" y="53" type="line"/>
      <point x="1372" y="68" type="line"/>
      <point x="1372" y="1228" type="line"/>
      <point x="1517" y="1242" type="line"/>
      <point x="1517" y="1292" type="line"/>
      <point x="830" y="1292" type="line"/>
      <point x="830" y="1241" type="line"/>
      <point x="990" y="1226" type="line"/>
      <point x="990" y="656" type="line"/>
      <point x="966" y="631"/>
      <point x="908" y="606"/>
      <point x="831" y="599" type="curve"/>
      <point x="831" y="870" type="line"/>
      <point x="679" y="870" type="line"/>
      <point x="679" y="601" type="line"/>
      <point x="531" y="604"/>
      <point x="525" y="659"/>
      <point x="525" y="969" type="curve" smooth="yes"/>
      <point x="525" y="1224" type="line"/>
      <point x="672" y="1242" type="line"/>
      <point x="672" y="1292" type="line"/>
      <point x="40" y="1292" type="line"/>
      <point x="40" y="1242" type="line"/>
      <point x="142" y="1222" type="line"/>
      <point x="142" y="928" type="line" smooth="yes"/>
      <point x="142" y="666"/>
      <point x="282" y="528"/>
      <point x="614" y="528" type="curve" smooth="yes"/>
      <point x="635" y="528"/>
      <point x="656" y="528"/>
      <point x="679" y="530" type="curve"/>
      <point x="679" y="321" type="line"/>
      <point x="831" y="321" type="line"/>
      <point x="831" y="527" type="line"/>
      <point x="891" y="538"/>
      <point x="949" y="556"/>
    </contour>
  </outline>
</glyph>
<glyph name="de-cy.sc" format="1">
  <advance width="1548"/>
  <outline>
    <contour>
      <point x="1470" y="68" type="curve"/>
      <point x="1281" y="68" type="line"/>
      <point x="1281" y="1228" type="line"/>
      <point x="1467" y="1242" type="line"/>
      <point x="1467" y="1292" type="line"/>
      <point x="216" y="1292" type="line"/>
      <point x="216" y="1242" type="line"/>
      <point x="417" y="1228" type="line"/>
      <point x="417" y="1078" type="line" smooth="yes"/>
      <point x="417" y="423"/>
      <point x="273" y="116"/>
      <point x="196" y="68" type="curve"/>
      <point x="59" y="68" type="line"/>
      <point x="47" y="123"/>
      <point x="48" y="-315"/>
      <point x="44" y="-290" type="curve"/>
      <point x="250" y="-290" type="line"/>
      <point x="261" y="-272"/>
      <point x="320" y="13"/>
      <point x="358" y="0" type="curve"/>
      <point x="1155" y="0" type="line"/>
      <point x="1182" y="-1"/>
      <point x="1239" y="-279"/>
      <point x="1242" y="-292" type="curve"/>
      <point x="1439" y="-292" type="line"/>
      <point x="1448" y="-299"/>
      <point x="1470" y="132"/>
    </contour>
    <contour>
      <point x="588" y="1068" type="curve"/>
      <point x="588" y="1223" type="line"/>
      <point x="900" y="1223" type="line"/>
      <point x="901" y="68" type="line"/>
      <point x="427" y="68" type="line"/>
      <point x="489" y="126"/>
      <point x="588" y="496"/>
    </contour>
  </outline>
</glyph>
<glyph name="dje-cy.sc" format="1">
  <advance width="1779"/>
  <outline>
    <contour>
      <point x="662" y="-144" type="move" name="mark0"/>
    </contour>
    <contour>
      <point x="919" y="667" type="curve"/>
      <point x="919" y="1240" type="line"/>
      <point x="1197" y="1227" type="line"/>
      <point x="1264" y="892" type="line"/>
      <point x="1466" y="892" type="line"/>
      <point x="1435" y="1292" type="line"/>
      <point x="81" y="1292" type="line"/>
      <point x="52" y="892" type="line"/>
      <point x="251" y="892" type="line"/>
      <point x="313" y="1227" type="line"/>
      <point x="535" y="1240" type="line"/>
      <point x="535" y="66" type="line"/>
      <point x="259" y="52" type="line"/>
      <point x="259" y="0" type="line"/>
      <point x="1177" y="0" type="line"/>
      <point x="1177" y="52" type="line"/>
      <point x="919" y="63" type="line"/>
      <point x="919" y="620" type="line"/>
      <point x="958" y="661"/>
      <point x="1037" y="670"/>
      <point x="1136" y="670" type="curve" smooth="yes"/>
      <point x="1287" y="670"/>
      <point x="1344" y="539"/>
      <point x="1344" y="311" type="curve" smooth="yes"/>
      <point x="1344" y="-62"/>
      <point x="1267" y="-269"/>
      <point x="1121" y="-269" type="curve" smooth="yes"/>
      <point x="1015" y="-269"/>
      <point x="986" y="-271"/>
      <point x="965" y="-272" type="curve"/>
      <point x="981" y="-331" type="line"/>
      <point x="1012" y="-340"/>
      <point x="1077" y="-337"/>
      <point x="1180" y="-337" type="curve" smooth="yes"/>
      <point x="1504" y="-337"/>
      <point x="1736" y="-36"/>
      <point x="1736" y="310" type="curve" smooth="yes"/>
      <point x="1736" y="509"/>
      <point x="1529" y="737"/>
      <point x="1224" y="737" type="curve" smooth="yes"/>
      <point x="1119" y="737"/>
      <point x="966" y="721"/>
    </contour>
  </outline>
</glyph>
<glyph name="dzeabkhasian-cy.sc" format="1">
  <advance width="1289"/>
  <outline>
    <contour>
      <point x="785" y="720" type="curve"/>
      <point x="1183" y="1249" type="line"/>
      <point x="1183" y="1292" type="line"/>
      <point x="113" y="1292" type="line"/>
      <point x="136" y="1038" type="line"/>
      <point x="360" y="1038" type="line"/>
      <point x="408" y="1206" type="line"/>
      <point x="798" y="1212" type="line"/>
      <point x="693" y="1266"/>
      <point x="576" y="700"/>
      <point x="470" y="735" type="curve"/>
      <point x="519" y="687" type="line"/>
      <point x="549" y="685"/>
      <point x="577" y="685"/>
      <point x="599" y="685" type="curve"/>
      <point x="805" y="670"/>
      <point x="818" y="585"/>
      <point x="818" y="384" type="curve" smooth="yes"/>
      <point x="818" y="234"/>
      <point x="705" y="73"/>
      <point x="567" y="73" type="curve" smooth="yes"/>
      <point x="478" y="73"/>
      <point x="431" y="105"/>
      <point x="424" y="109" type="curve"/>
      <point x="351" y="296" type="line"/>
      <point x="141" y="296" type="line"/>
      <point x="94" y="42" type="line"/>
      <point x="162" y="38"/>
      <point x="384" y="-8"/>
      <point x="582" y="-8" type="curve" smooth="yes"/>
      <point x="1107" y="-8"/>
      <point x="1238" y="132"/>
      <point x="1238" y="392" type="curve" smooth="yes"/>
      <point x="1238" y="633"/>
      <point x="1125" y="727"/>
      <point x="849" y="727" type="curve" smooth="yes"/>
      <point x="830" y="727"/>
      <point x="808" y="725"/>
    </contour>
  </outline>
</glyph>
<glyph name="dzhe-cy.sc" format="1">
  <advance width="1630"/>
  <outline>
    <contour>
      <point x="981" y="0" type="curve"/>
      <point x="1563" y="0" type="line"/>
      <point x="1563" y="52" type="line"/>
      <point x="1418" y="66" type="line"/>
      <point x="1418" y="1228" type="line"/>
      <point x="1559" y="1242" type="line"/>
      <point x="1559" y="1292" type="line"/>
      <point x="877" y="1292" type="line"/>
      <point x="877" y="1242" type="line"/>
      <point x="1039" y="1228" type="line"/>
      <point x="1039" y="71" type="line"/>
      <point x="594" y="71" type="line"/>
      <point x="594" y="1228" type="line"/>
      <point x="752" y="1242" type="line"/>
      <point x="752" y="1292" type="line"/>
      <point x="72" y="1292" type="line"/>
      <point x="72" y="1242" type="line"/>
      <point x="211" y="1228" type="line"/>
      <point x="211" y="68" type="line"/>
      <point x="68" y="52" type="line"/>
      <point x="68" y="0" type="line"/>
      <point x="646" y="0" type="line"/>
      <point x="661" y="7"/>
      <point x="707" y="-332"/>
      <point x="707" y="-290" type="curve"/>
      <point x="924" y="-290" type="line"/>
      <point x="925" y="-184"/>
      <point x="960" y="-132"/>
    </contour>
  </outline>
</glyph>
<glyph name="e-cy.sc" format="1">
  <advance width="1347"/>
  <outline>
    <contour>
      <point x="735" y="0" type="move" name="mark0"/>
    </contour>
    <contour>
      <point x="1256" y="46" type="curve"/>
      <point x="1255" y="261" type="line"/>
      <point x="1044" y="273" type="line"/>
      <point x="962" y="114" type="line"/>
      <point x="941" y="72"/>
      <point x="898" y="49"/>
      <point x="787" y="49" type="curve" smooth="yes"/>
      <point x="608" y="49"/>
      <point x="504" y="335"/>
      <point x="483" y="633" type="curve"/>
      <point x="981" y="615" type="line"/>
      <point x="981" y="716" type="line"/>
      <point x="479" y="699" type="line"/>
      <point x="495" y="1024"/>
      <point x="629" y="1237"/>
      <point x="812" y="1237" type="curve" smooth="yes"/>
      <point x="893" y="1237"/>
      <point x="906" y="1211"/>
      <point x="928" y="1184" type="curve"/>
      <point x="983" y="999" type="line"/>
      <point x="1236" y="999" type="line"/>
      <point x="1260" y="1248" type="line"/>
      <point x="1159" y="1262"/>
      <point x="1025" y="1306"/>
      <point x="833" y="1306" type="curve" smooth="yes"/>
      <point x="354" y="1306"/>
      <point x="57" y="1019"/>
      <point x="57" y="656" type="curve" smooth="yes"/>
      <point x="57" y="250"/>
      <point x="292" y="-20"/>
      <point x="751" y="-20" type="curve" smooth="yes"/>
      <point x="1020" y="-20"/>
      <point x="1142" y="43"/>
    </contour>
  </outline>
</glyph>
<glyph name="el-cy.sc" format="1">
  <advance width="1561"/>
  <outline>
    <contour>
      <point x="603" y="-144" type="move" name="mark0"/>
    </contour>
    <contour>
      <point x="607" y="1033" type="curve" smooth="yes"/>
      <point x="607" y="1229" type="line"/>
      <point x="935" y="1229" type="line"/>
      <point x="935" y="68" type="line"/>
      <point x="733" y="52" type="line"/>
      <point x="733" y="0" type="line"/>
      <point x="1496" y="0" type="line"/>
      <point x="1496" y="52" type="line"/>
      <point x="1313" y="66" type="line"/>
      <point x="1313" y="1228" type="line"/>
      <point x="1488" y="1242" type="line"/>
      <point x="1488" y="1292" type="line"/>
      <point x="193" y="1292" type="line"/>
      <point x="193" y="1242" type="line"/>
      <point x="439" y="1228" type="line"/>
      <point x="439" y="1027" type="line" smooth="yes"/>
      <point x="439" y="584"/>
      <point x="394" y="297"/>
      <point x="332" y="166" type="curve"/>
      <point x="299" y="130"/>
      <point x="268" y="106"/>
      <point x="213" y="106" type="curve" smooth="yes"/>
      <point x="148" y="106"/>
      <point x="113" y="111"/>
      <point x="61" y="115" type="curve"/>
      <point x="86" y="0" type="line"/>
      <point x="128" y="-2"/>
      <point x="182" y="-8"/>
      <point x="248" y="-8" type="curve" smooth="yes"/>
      <point x="352" y="-8"/>
      <point x="429" y="24"/>
      <point x="481" y="106" type="curve" smooth="yes"/>
      <point x="572" y="259"/>
      <point x="607" y="564"/>
    </contour>
  </outline>
</glyph>
<glyph name="elhook-cy.sc" format="1">
  <advance width="1516"/>
  <outline>
    <contour>
      <point x="1313" y="478" type="curve" smooth="yes"/>
      <point x="1313" y="1228" type="line"/>
      <point x="1488" y="1242" type="line"/>
      <point x="1488" y="1292" type="line"/>
      <point x="193" y="1292" type="line"/>
      <point x="193" y="1242" type="line"/>
      <point x="439" y="1228" type="line"/>
      <point x="439" y="1027" type="line" smooth="yes"/>
      <point x="439" y="584"/>
      <point x="394" y="297"/>
      <point x="332" y="166" type="curve"/>
      <point x="299" y="130"/>
      <point x="268" y="106"/>
      <point x="213" y="106" type="curve" smooth="yes"/>
      <point x="148" y="106"/>
      <point x="113" y="111"/>
      <point x="61" y="115" type="curve"/>
      <point x="86" y="0" type="line"/>
      <point x="128" y="-2"/>
      <point x="182" y="-8"/>
      <point x="248" y="-8" type="curve" smooth="yes"/>
      <point x="352" y="-8"/>
      <point x="429" y="24"/>
      <point x="481" y="106" type="curve" smooth="yes"/>
      <point x="572" y="259"/>
      <point x="607" y="564"/>
      <point x="607" y="1033" type="curve" smooth="yes"/>
      <point x="607" y="1229" type="line"/>
      <point x="934" y="1229" type="line"/>
      <point x="933" y="500" type="line" smooth="yes"/>
      <point x="932" y="201"/>
      <point x="916" y="103"/>
      <point x="893" y="-16" type="curve" smooth="yes"/>
      <point x="840" y="-130"/>
      <point x="745" y="-212"/>
      <point x="664" y="-240" type="curve"/>
      <point x="748" y="-281" type="line"/>
      <point x="1058" y="-262"/>
      <point x="1225" y="-176"/>
      <point x="1284" y="41" type="curve"/>
      <point x="1308" y="140"/>
      <point x="1313" y="286"/>
    </contour>
  </outline>
</glyph>
<glyph name="eltail-cy.sc" format="1">
  <advance width="1573"/>
  <outline>
    <contour>
      <point x="626" y="-144" type="move" name="mark0"/>
    </contour>
    <contour>
      <point x="1509" y="0" type="curve"/>
      <point x="1509" y="67" type="line"/>
      <point x="1313" y="67" type="line"/>
      <point x="1313" y="1228" type="line"/>
      <point x="1488" y="1242" type="line"/>
      <point x="1488" y="1292" type="line"/>
      <point x="193" y="1292" type="line"/>
      <point x="193" y="1242" type="line"/>
      <point x="439" y="1228" type="line"/>
      <point x="439" y="1027" type="line" smooth="yes"/>
      <point x="439" y="587"/>
      <point x="394" y="296"/>
      <point x="332" y="166" type="curve"/>
      <point x="302" y="125"/>
      <point x="272" y="107"/>
      <point x="213" y="107" type="curve" smooth="yes"/>
      <point x="145" y="107"/>
      <point x="111" y="111"/>
      <point x="61" y="117" type="curve"/>
      <point x="86" y="0" type="line"/>
      <point x="128" y="-2"/>
      <point x="182" y="-8"/>
      <point x="248" y="-8" type="curve" smooth="yes"/>
      <point x="350" y="-8"/>
      <point x="422" y="24"/>
      <point x="473" y="103" type="curve" smooth="yes"/>
      <point x="568" y="268"/>
      <point x="607" y="572"/>
      <point x="607" y="1033" type="curve" smooth="yes"/>
      <point x="607" y="1229" type="line"/>
      <point x="935" y="1229" type="line"/>
      <point x="937" y="68" type="line"/>
      <point x="733" y="52" type="line"/>
      <point x="733" y="0" type="line"/>
      <point x="1222" y="0" type="line"/>
      <point x="1202" y="5"/>
      <point x="1141" y="-331"/>
      <point x="1090" y="-290" type="curve"/>
      <point x="1287" y="-290" type="line"/>
      <point x="1323" y="-304"/>
      <point x="1445" y="43"/>
    </contour>
  </outline>
</glyph>
<glyph name="emtail-cy.sc" format="1">
  <advance width="2047"/>
  <outline>
    <contour>
      <point x="859" y="-144" type="move" name="mark0"/>
    </contour>
    <contour>
      <point x="2056" y="0" type="curve"/>
      <point x="2056" y="71" type="line"/>
      <point x="1900" y="71" type="line"/>
      <point x="1729" y="1228" type="line"/>
      <point x="1932" y="1242" type="line"/>
      <point x="1932" y="1292" type="line"/>
      <point x="1228" y="1292" type="line"/>
      <point x="1065" y="365" type="line"/>
      <point x="1035" y="115" type="line"/>
      <point x="1000" y="365" type="line"/>
      <point x="812" y="1292" type="line"/>
      <point x="129" y="1292" type="line"/>
      <point x="129" y="1242" type="line"/>
      <point x="305" y="1228" type="line"/>
      <point x="155" y="68" type="line"/>
      <point x="-2" y="52" type="line"/>
      <point x="-2" y="0" type="line"/>
      <point x="572" y="0" type="line"/>
      <point x="572" y="52" type="line"/>
      <point x="378" y="68" type="line"/>
      <point x="452" y="884" type="line"/>
      <point x="475" y="1254" type="line"/>
      <point x="542" y="898" type="line"/>
      <point x="804" y="-14" type="line"/>
      <point x="1108" y="-14" type="line"/>
      <point x="1323" y="1039" type="line"/>
      <point x="1373" y="1258" type="line"/>
      <point x="1408" y="884" type="line"/>
      <point x="1496" y="68" type="line"/>
      <point x="1342" y="52" type="line"/>
      <point x="1342" y="0" type="line"/>
      <point x="1769" y="0" type="line"/>
      <point x="1750" y="19"/>
      <point x="1686" y="-320"/>
      <point x="1655" y="-290" type="curve"/>
      <point x="1850" y="-290" type="line"/>
      <point x="1881" y="-297"/>
      <point x="1985" y="48"/>
    </contour>
  </outline>
</glyph>
<glyph name="endescender-cy.sc" format="1">
  <advance width="1652"/>
  <outline>
    <contour>
      <point x="742" y="-144" type="move" name="mark0"/>
    </contour>
    <contour>
      <point x="1633" y="68" type="curve"/>
      <point x="1436" y="68" type="line"/>
      <point x="1436" y="1227" type="line"/>
      <point x="1573" y="1242" type="line"/>
      <point x="1573" y="1292" type="line"/>
      <point x="913" y="1292" type="line"/>
      <point x="913" y="1242" type="line"/>
      <point x="1054" y="1228" type="line"/>
      <point x="1054" y="699" type="line"/>
      <point x="595" y="699" type="line"/>
      <point x="595" y="1227" type="line"/>
      <point x="747" y="1242" type="line"/>
      <point x="747" y="1292" type="line"/>
      <point x="80" y="1292" type="line"/>
      <point x="80" y="1242" type="line"/>
      <point x="211" y="1227" type="line"/>
      <point x="211" y="66" type="line"/>
      <point x="78" y="52" type="line"/>
      <point x="78" y="0" type="line"/>
      <point x="748" y="0" type="line"/>
      <point x="748" y="52" type="line"/>
      <point x="595" y="66" type="line"/>
      <point x="595" y="635" type="line"/>
      <point x="1054" y="635" type="line"/>
      <point x="1054" y="68" type="line"/>
      <point x="912" y="52" type="line"/>
      <point x="912" y="0" type="line"/>
      <point x="1318" y="0" type="line"/>
      <point x="1347" y="0"/>
      <point x="1385" y="-273"/>
      <point x="1388" y="-292" type="curve"/>
      <point x="1585" y="-292" type="line"/>
      <point x="1595" y="-295"/>
      <point x="1633" y="127"/>
    </contour>
  </outline>
</glyph>
<glyph name="enghe-cy.sc" format="1">
  <advance width="1964"/>
  <outline>
    <contour>
      <point x="71" y="1292" type="line"/>
      <point x="71" y="1242" type="line"/>
      <point x="210" y="1227" type="line"/>
      <point x="210" y="66" type="line"/>
      <point x="69" y="52" type="line"/>
      <point x="69" y="0" type="line"/>
      <point x="747" y="0" type="line"/>
      <point x="747" y="52" type="line"/>
      <point x="594" y="68" type="line"/>
      <point x="594" y="635" type="line"/>
      <point x="1051" y="635" type="line"/>
      <point x="1051" y="68" type="line"/>
      <point x="911" y="52" type="line"/>
      <point x="911" y="0" type="line"/>
      <point x="1598" y="0" type="line"/>
      <point x="1598" y="52" type="line"/>
      <point x="1433" y="68" type="line"/>
      <point x="1433" y="1242" type="line"/>
      <point x="1626" y="1222" type="line"/>
      <point x="1709" y="928" type="line"/>
      <point x="1921" y="928" type="line"/>
      <point x="1887" y="1292" type="line"/>
      <point x="909" y="1292" type="line"/>
      <point x="909" y="1242" type="line"/>
      <point x="1051" y="1228" type="line"/>
      <point x="1051" y="699" type="line"/>
      <point x="594" y="699" type="line"/>
      <point x="594" y="1228" type="line"/>
      <point x="747" y="1242" type="line"/>
      <point x="747" y="1292" type="line"/>
    </contour>
  </outline>
</glyph>
<glyph name="enhook-cy.sc" format="1">
  <advance width="1613"/>
  <outline>
    <contour>
      <point x="786" y="-144" type="move" name="mark0"/>
    </contour>
    <contour>
      <point x="1436" y="431" type="curve" smooth="yes"/>
      <point x="1436" y="1228" type="line"/>
      <point x="1572" y="1242" type="line"/>
      <point x="1572" y="1292" type="line"/>
      <point x="913" y="1292" type="line"/>
      <point x="913" y="1242" type="line"/>
      <point x="1054" y="1228" type="line"/>
      <point x="1054" y="699" type="line"/>
      <point x="595" y="699" type="line"/>
      <point x="595" y="1227" type="line"/>
      <point x="747" y="1242" type="line"/>
      <point x="747" y="1292" type="line"/>
      <point x="80" y="1292" type="line"/>
      <point x="80" y="1242" type="line"/>
      <point x="211" y="1227" type="line"/>
      <point x="211" y="66" type="line"/>
      <point x="78" y="52" type="line"/>
      <point x="78" y="0" type="line"/>
      <point x="748" y="0" type="line"/>
      <point x="748" y="52" type="line"/>
      <point x="595" y="66" type="line"/>
      <point x="595" y="635" type="line"/>
      <point x="1053" y="635" type="line"/>
      <point x="1053" y="452" type="line" smooth="yes"/>
      <point x="1053" y="122"/>
      <point x="1040" y="15"/>
      <point x="1020" y="-82" type="curve"/>
      <point x="966" y="-149"/>
      <point x="872" y="-208"/>
      <point x="775" y="-225" type="curve"/>
      <point x="858" y="-273" type="line"/>
      <point x="1189" y="-267"/>
      <point x="1344" y="-205"/>
      <point x="1402" y="-37" type="curve"/>
      <point x="1428" y="100"/>
      <point x="1436" y="225"/>
    </contour>
  </outline>
</glyph>
<glyph name="enlefthook-cy.sc" format="1">
  <advance width="1638"/>
  <outline>
    <contour>
      <point x="617" y="478" type="curve" smooth="yes"/>
      <point x="617" y="635" type="line"/>
      <point x="1062" y="635" type="line"/>
      <point x="1062" y="69" type="line"/>
      <point x="920" y="52" type="line"/>
      <point x="920" y="0" type="line"/>
      <point x="1574" y="0" type="line"/>
      <point x="1574" y="52" type="line"/>
      <point x="1441" y="67" type="line"/>
      <point x="1441" y="1227" type="line"/>
      <point x="1574" y="1242" type="line"/>
      <point x="1574" y="1292" type="line"/>
      <point x="922" y="1292" type="line"/>
      <point x="922" y="1242" type="line"/>
      <point x="1062" y="1229" type="line"/>
      <point x="1062" y="698" type="line"/>
      <point x="617" y="698" type="line"/>
      <point x="617" y="1227" type="line"/>
      <point x="771" y="1242" type="line"/>
      <point x="771" y="1292" type="line"/>
      <point x="106" y="1292" type="line"/>
      <point x="106" y="1242" type="line"/>
      <point x="237" y="1227" type="line"/>
      <point x="237" y="500" type="line" smooth="yes"/>
      <point x="237" y="232"/>
      <point x="221" y="115"/>
      <point x="199" y="-20" type="curve" smooth="yes"/>
      <point x="146" y="-128"/>
      <point x="50" y="-212"/>
      <point x="-32" y="-240" type="curve"/>
      <point x="53" y="-281" type="line"/>
      <point x="357" y="-259"/>
      <point x="525" y="-166"/>
      <point x="587" y="43" type="curve"/>
      <point x="615" y="160"/>
      <point x="617" y="280"/>
    </contour>
  </outline>
</glyph>
<glyph name="entail-cy.sc" format="1">
  <advance width="1639"/>
  <outline>
    <contour>
      <point x="1615" y="0" type="curve"/>
      <point x="1615" y="64" type="line"/>
      <point x="1435" y="64" type="line"/>
      <point x="1435" y="1227" type="line"/>
      <point x="1575" y="1242" type="line"/>
      <point x="1575" y="1292" type="line"/>
      <point x="910" y="1292" type="line"/>
      <point x="910" y="1242" type="line"/>
      <point x="1052" y="1228" type="line"/>
      <point x="1052" y="699" type="line"/>
      <point x="596" y="699" type="line"/>
      <point x="596" y="1228" type="line"/>
      <point x="749" y="1242" type="line"/>
      <point x="749" y="1292" type="line"/>
      <point x="73" y="1292" type="line"/>
      <point x="73" y="1242" type="line"/>
      <point x="211" y="1228" type="line"/>
      <point x="211" y="66" type="line"/>
      <point x="71" y="51" type="line"/>
      <point x="71" y="0" type="line"/>
      <point x="749" y="0" type="line"/>
      <point x="749" y="51" type="line"/>
      <point x="596" y="68" type="line"/>
      <point x="596" y="635" type="line"/>
      <point x="1052" y="635" type="line"/>
      <point x="1052" y="68" type="line"/>
      <point x="912" y="51" type="line"/>
      <point x="912" y="0" type="line"/>
      <point x="1336" y="0" type="line"/>
      <point x="1304" y="-117"/>
      <point x="1234" y="-193"/>
      <point x="1183" y="-294" type="curve"/>
      <point x="1387" y="-294" type="line"/>
      <point x="1420" y="-309"/>
      <point x="1560" y="29"/>
    </contour>
  </outline>
</glyph>
<glyph name="ereversed-cy.sc" format="1">
  <advance width="1351"/>
  <outline>
    <contour>
      <point x="659" y="1263" type="move" name="top"/>
    </contour>
    <contour>
      <point x="87" y="1240" type="curve"/>
      <point x="103" y="1003" type="line"/>
      <point x="322" y="1001" type="line"/>
      <point x="392" y="1141" type="line"/>
      <point x="413" y="1184"/>
      <point x="465" y="1242"/>
      <point x="572" y="1242" type="curve" smooth="yes"/>
      <point x="742" y="1242"/>
      <point x="839" y="973"/>
      <point x="865" y="696" type="curve"/>
      <point x="357" y="714" type="line"/>
      <point x="357" y="612" type="line"/>
      <point x="872" y="628" type="line"/>
      <point x="865" y="279"/>
      <point x="750" y="53"/>
      <point x="556" y="53" type="curve" smooth="yes"/>
      <point x="468" y="53"/>
      <point x="439" y="106"/>
      <point x="420" y="138" type="curve"/>
      <point x="355" y="262" type="line"/>
      <point x="104" y="235" type="line"/>
      <point x="99" y="51" type="line"/>
      <point x="207" y="52"/>
      <point x="327" y="-20"/>
      <point x="536" y="-20" type="curve" smooth="yes"/>
      <point x="1014" y="-20"/>
      <point x="1293" y="258"/>
      <point x="1293" y="626" type="curve" smooth="yes"/>
      <point x="1293" y="1028"/>
      <point x="1064" y="1306"/>
      <point x="606" y="1306" type="curve" smooth="yes"/>
      <point x="333" y="1306"/>
      <point x="201" y="1243"/>
    </contour>
  </outline>
</glyph>
<glyph name="ertick-cy.sc" format="1">
  <advance width="1327"/>
  <outline>
    <contour>
      <point x="659" y="-144" type="move" name="mark0"/>
    </contour>
    <contour>
      <point x="412" y="1292" type="curve" smooth="yes"/>
      <point x="76" y="1292" type="line"/>
      <point x="76" y="1242" type="line"/>
      <point x="211" y="1228" type="line"/>
      <point x="211" y="66" type="line"/>
      <point x="71" y="52" type="line"/>
      <point x="71" y="0" type="line"/>
      <point x="843" y="0" type="line"/>
      <point x="843" y="52" type="line"/>
      <point x="596" y="69" type="line"/>
      <point x="596" y="529" type="line"/>
      <point x="616" y="524"/>
      <point x="663" y="520"/>
      <point x="705" y="520" type="curve" smooth="yes"/>
      <point x="808" y="520"/>
      <point x="898" y="528"/>
      <point x="975" y="543" type="curve"/>
      <point x="1135" y="317" type="line"/>
      <point x="1226" y="353" type="line"/>
      <point x="1088" y="571" type="line"/>
      <point x="1218" y="635"/>
      <point x="1289" y="765"/>
      <point x="1289" y="953" type="curve" smooth="yes"/>
      <point x="1289" y="1170"/>
      <point x="1158" y="1306"/>
      <point x="729" y="1306" type="curve" smooth="yes"/>
      <point x="588" y="1305"/>
      <point x="486" y="1292"/>
    </contour>
    <contour>
      <point x="879" y="600" type="curve"/>
      <point x="770" y="781" type="line"/>
      <point x="679" y="744" type="line"/>
      <point x="824" y="590" type="line"/>
      <point x="790" y="588"/>
      <point x="746" y="588"/>
      <point x="694" y="588" type="curve" smooth="yes"/>
      <point x="639" y="588"/>
      <point x="609" y="588"/>
      <point x="595" y="595" type="curve"/>
      <point x="595" y="1230" type="line"/>
      <point x="616" y="1227"/>
      <point x="625" y="1240"/>
      <point x="692" y="1240" type="curve" smooth="yes"/>
      <point x="827" y="1240"/>
      <point x="902" y="1170"/>
      <point x="902" y="955" type="curve" smooth="yes"/>
      <point x="902" y="761"/>
      <point x="894" y="652"/>
    </contour>
  </outline>
</glyph>
<glyph name="esdescender-cy.sc" format="1">
  <advance width="1307"/>
  <outline>
    <contour>
      <point x="1207" y="46" type="curve"/>
      <point x="1237" y="253" type="line"/>
      <point x="1019" y="262" type="line"/>
      <point x="931" y="113" type="line"/>
      <point x="903" y="71"/>
      <point x="867" y="41"/>
      <point x="768" y="41" type="curve" smooth="yes"/>
      <point x="583" y="41"/>
      <point x="487" y="364"/>
      <point x="487" y="672" type="curve" smooth="yes"/>
      <point x="487" y="1030"/>
      <point x="594" y="1246"/>
      <point x="763" y="1246" type="curve" smooth="yes"/>
      <point x="849" y="1246"/>
      <point x="885" y="1216"/>
      <point x="904" y="1185" type="curve"/>
      <point x="976" y="1019" type="line"/>
      <point x="1214" y="1019" type="line"/>
      <point x="1241" y="1246" type="line"/>
      <point x="1160" y="1264"/>
      <point x="973" y="1306"/>
      <point x="777" y="1306" type="curve" smooth="yes"/>
      <point x="362" y="1306"/>
      <point x="56" y="1031"/>
      <point x="56" y="663" type="curve" smooth="yes"/>
      <point x="56" y="292"/>
      <point x="229" y="18"/>
      <point x="586" y="-18" type="curve"/>
      <point x="604" y="-80"/>
      <point x="645" y="-328"/>
      <point x="645" y="-290" type="curve"/>
      <point x="860" y="-290" type="line"/>
      <point x="862" y="77"/>
      <point x="892" y="-153"/>
      <point x="912" y="-18" type="curve"/>
      <point x="1034" y="-10"/>
      <point x="1105" y="44"/>
    </contour>
  </outline>
</glyph>
<glyph name="fita-cy.sc" format="1">
  <advance width="1437"/>
  <outline>
    <contour>
      <point x="712" y="-20" type="curve" smooth="yes"/>
      <point x="1128" y="-12"/>
      <point x="1378" y="243"/>
      <point x="1378" y="653" type="curve" smooth="yes"/>
      <point x="1378" y="1046"/>
      <point x="1207" y="1307"/>
      <point x="728" y="1306" type="curve" smooth="yes"/>
      <point x="316" y="1306"/>
      <point x="61" y="1046"/>
      <point x="61" y="633" type="curve" smooth="yes"/>
      <point x="61" y="247"/>
      <point x="240" y="-28"/>
    </contour>
    <contour>
      <point x="718" y="44" type="curve" smooth="yes"/>
      <point x="578" y="44"/>
      <point x="490" y="271"/>
      <point x="479" y="543" type="curve"/>
      <point x="501" y="586"/>
      <point x="525" y="678"/>
      <point x="562" y="678" type="curve" smooth="yes"/>
      <point x="661" y="678"/>
      <point x="715" y="550"/>
      <point x="844" y="550" type="curve" smooth="yes"/>
      <point x="889" y="550"/>
      <point x="925" y="631"/>
      <point x="955" y="708" type="curve"/>
      <point x="941" y="290"/>
      <point x="858" y="44"/>
    </contour>
    <contour>
      <point x="485" y="608" type="curve"/>
      <point x="500" y="1033"/>
      <point x="582" y="1241"/>
      <point x="723" y="1241" type="curve" smooth="yes"/>
      <point x="858" y="1241"/>
      <point x="948" y="1023"/>
      <point x="957" y="773" type="curve"/>
      <point x="939" y="730"/>
      <point x="924" y="636"/>
      <point x="885" y="636" type="curve" smooth="yes"/>
      <point x="784" y="636"/>
      <point x="730" y="763"/>
      <point x="601" y="763" type="curve" smooth="yes"/>
      <point x="561" y="763"/>
      <point x="518" y="690"/>
    </contour>
  </outline>
</glyph>
<glyph name="gedescender-cy.sc" format="1">
  <advance width="1213"/>
  <outline>
    <contour>
      <point x="657" y="-144" type="move" name="mark0"/>
    </contour>
    <contour>
      <point x="995" y="68" type="curve"/>
      <point x="652" y="68" type="line"/>
      <point x="652" y="1240" type="line"/>
      <point x="915" y="1235" type="line"/>
      <point x="998" y="895" type="line"/>
      <point x="1205" y="895" type="line"/>
      <point x="1170" y="1292" type="line"/>
      <point x="67" y="1292" type="line"/>
      <point x="67" y="1244" type="line"/>
      <point x="271" y="1225" type="line"/>
      <point x="271" y="68" type="line"/>
      <point x="64" y="51" type="line"/>
      <point x="64" y="0" type="line"/>
      <point x="680" y="0" type="line"/>
      <point x="710" y="1"/>
      <point x="749" y="-259"/>
      <point x="749" y="-292" type="curve"/>
      <point x="946" y="-292" type="line"/>
      <point x="956" y="-302"/>
      <point x="995" y="111"/>
    </contour>
  </outline>
</glyph>
<glyph name="gestrokehook-cy.sc" format="1">
  <advance width="1215"/>
  <outline>
    <contour>
      <point x="938" y="51" type="curve"/>
      <point x="652" y="68" type="line"/>
      <point x="652" y="618" type="line"/>
      <point x="883" y="618" type="line"/>
      <point x="883" y="677" type="line"/>
      <point x="652" y="677" type="line"/>
      <point x="652" y="1240" type="line"/>
      <point x="915" y="1235" type="line"/>
      <point x="991" y="895" type="line"/>
      <point x="1205" y="895" type="line"/>
      <point x="1170" y="1292" type="line"/>
      <point x="67" y="1292" type="line"/>
      <point x="67" y="1244" type="line"/>
      <point x="271" y="1225" type="line"/>
      <point x="271" y="677" type="line"/>
      <point x="101" y="677" type="line"/>
      <point x="101" y="618" type="line"/>
      <point x="271" y="618" type="line"/>
      <point x="271" y="68" type="line"/>
      <point x="64" y="51" type="line"/>
      <point x="64" y="0" type="line"/>
      <point x="813" y="0" type="line"/>
      <point x="821" y="-67"/>
      <point x="827" y="-128"/>
      <point x="827" y="-165" type="curve" smooth="yes"/>
      <point x="827" y="-270"/>
      <point x="783" y="-312"/>
      <point x="700" y="-312" type="curve" smooth="yes"/>
      <point x="686" y="-312"/>
      <point x="644" y="-308"/>
      <point x="620" y="-296" type="curve"/>
      <point x="621" y="-368" type="line"/>
      <point x="653" y="-379"/>
      <point x="716" y="-388"/>
      <point x="757" y="-388" type="curve" smooth="yes"/>
      <point x="938" y="-388"/>
      <point x="1062" y="-319"/>
      <point x="1062" y="-235" type="curve" smooth="yes"/>
      <point x="1062" y="-130"/>
      <point x="1031" y="-10"/>
    </contour>
  </outline>
</glyph>
<glyph name="ghemiddlehook-cy.sc" format="1">
  <advance width="1517"/>
  <outline>
    <contour>
      <point x="658" y="667" type="curve"/>
      <point x="658" y="1240" type="line"/>
      <point x="929" y="1227" type="line"/>
      <point x="993" y="971" type="line"/>
      <point x="1207" y="971" type="line"/>
      <point x="1185" y="1292" type="line"/>
      <point x="74" y="1292" type="line"/>
      <point x="74" y="1244" type="line"/>
      <point x="275" y="1225" type="line"/>
      <point x="275" y="68" type="line"/>
      <point x="69" y="52" type="line"/>
      <point x="69" y="0" type="line"/>
      <point x="910" y="0" type="line"/>
      <point x="910" y="52" type="line"/>
      <point x="658" y="68" type="line"/>
      <point x="658" y="618" type="line"/>
      <point x="698" y="661"/>
      <point x="778" y="670"/>
      <point x="876" y="670" type="curve" smooth="yes"/>
      <point x="1025" y="670"/>
      <point x="1084" y="539"/>
      <point x="1084" y="311" type="curve" smooth="yes"/>
      <point x="1084" y="-62"/>
      <point x="1008" y="-269"/>
      <point x="862" y="-269" type="curve" smooth="yes"/>
      <point x="755" y="-269"/>
      <point x="727" y="-271"/>
      <point x="705" y="-272" type="curve"/>
      <point x="721" y="-331" type="line"/>
      <point x="753" y="-340"/>
      <point x="817" y="-337"/>
      <point x="920" y="-337" type="curve" smooth="yes"/>
      <point x="1243" y="-337"/>
      <point x="1475" y="-34"/>
      <point x="1475" y="309" type="curve" smooth="yes"/>
      <point x="1475" y="509"/>
      <point x="1270" y="737"/>
      <point x="964" y="737" type="curve" smooth="yes"/>
      <point x="859" y="737"/>
      <point x="705" y="721"/>
    </contour>
  </outline>
</glyph>
<glyph name="ghestroke-cy.sc" format="1">
  <advance width="1215"/>
  <outline>
    <contour>
      <point x="67" y="1292" type="line"/>
      <point x="67" y="1244" type="line"/>
      <point x="271" y="1225" type="line"/>
      <point x="271" y="677" type="line"/>
      <point x="101" y="677" type="line"/>
      <point x="101" y="618" type="line"/>
      <point x="271" y="618" type="line"/>
      <point x="271" y="68" type="line"/>
      <point x="64" y="51" type="line"/>
      <point x="64" y="0" type="line"/>
      <point x="942" y="0" type="line"/>
      <point x="942" y="51" type="line"/>
      <point x="652" y="68" type="line"/>
      <point x="652" y="618" type="line"/>
      <point x="883" y="618" type="line"/>
      <point x="883" y="677" type="line"/>
      <point x="652" y="677" type="line"/>
      <point x="652" y="1240" type="line"/>
      <point x="915" y="1235" type="line"/>
      <point x="991" y="895" type="line"/>
      <point x="1205" y="895" type="line"/>
      <point x="1170" y="1292" type="line"/>
    </contour>
  </outline>
</glyph>
<glyph name="gheupturn-cy.sc" format="1">
  <advance width="1164"/>
  <outline>
    <contour>
      <point x="646" y="-144" type="move" name="mark0"/>
    </contour>
    <contour>
      <point x="942" y="1598" type="line"/>
      <point x="861" y="1292" type="line"/>
      <point x="67" y="1292" type="line"/>
      <point x="67" y="1245" type="line"/>
      <point x="260" y="1224" type="line"/>
      <point x="260" y="69" type="line"/>
      <point x="66" y="51" type="line"/>
      <point x="66" y="0" type="line"/>
      <point x="931" y="0" type="line"/>
      <point x="931" y="51" type="line"/>
      <point x="642" y="69" type="line"/>
      <point x="642" y="1241" type="line"/>
      <point x="1106" y="1237" type="line"/>
      <point x="1122" y="1598" type="line"/>
    </contour>
  </outline>
</glyph>
<glyph name="haabkhasian-cy.sc" format="1">
  <advance width="1795"/>
  <outline>
    <contour>
      <point x="940" y="1229" type="curve"/>
      <point x="960" y="1301" type="line"/>
      <point x="925" y="1305"/>
      <point x="855" y="1306"/>
      <point x="813" y="1306" type="curve" smooth="yes"/>
      <point x="362" y="1306"/>
      <point x="58" y="1076"/>
      <point x="58" y="634" type="curve" smooth="yes"/>
      <point x="58" y="264"/>
      <point x="248" y="-20"/>
      <point x="771" y="-20" type="curve" smooth="yes"/>
      <point x="887" y="-20"/>
      <point x="1016" y="3"/>
      <point x="1103" y="52" type="curve"/>
      <point x="1205" y="16"/>
      <point x="1327" y="-20"/>
      <point x="1455" y="-20" type="curve" smooth="yes"/>
      <point x="1573" y="-20"/>
      <point x="1667" y="3"/>
      <point x="1751" y="50" type="curve"/>
      <point x="1710" y="85" type="line"/>
      <point x="1654" y="53"/>
      <point x="1582" y="44"/>
      <point x="1514" y="44" type="curve" smooth="yes"/>
      <point x="1447" y="44"/>
      <point x="1383" y="65"/>
      <point x="1322" y="99" type="curve"/>
      <point x="1448" y="156"/>
      <point x="1625" y="348"/>
      <point x="1625" y="602" type="curve" smooth="yes"/>
      <point x="1625" y="953"/>
      <point x="1362" y="1054"/>
      <point x="1141" y="1054" type="curve" smooth="yes"/>
      <point x="911" y="1054"/>
      <point x="670" y="938"/>
      <point x="670" y="591" type="curve" smooth="yes"/>
      <point x="670" y="385"/>
      <point x="783" y="151"/>
      <point x="947" y="83" type="curve"/>
      <point x="910" y="42"/>
      <point x="874" y="44"/>
      <point x="837" y="44" type="curve" smooth="yes"/>
      <point x="645" y="44"/>
      <point x="461" y="271"/>
      <point x="461" y="636" type="curve" smooth="yes"/>
      <point x="461" y="1059"/>
      <point x="664" y="1244"/>
      <point x="853" y="1244" type="curve" smooth="yes"/>
      <point x="883" y="1244"/>
      <point x="914" y="1240"/>
    </contour>
    <contour>
      <point x="1140" y="1008" type="curve" smooth="yes"/>
      <point x="1240" y="1008"/>
      <point x="1263" y="857"/>
      <point x="1263" y="600" type="curve" smooth="yes"/>
      <point x="1263" y="370"/>
      <point x="1231" y="199"/>
      <point x="1163" y="122" type="curve"/>
      <point x="1059" y="208"/>
      <point x="1008" y="394"/>
      <point x="1008" y="576" type="curve" smooth="yes"/>
      <point x="1008" y="887"/>
      <point x="1037" y="1008"/>
    </contour>
  </outline>
</glyph>
<glyph name="hahook-cy.sc" format="1">
  <advance width="1427"/>
  <outline>
    <contour>
      <point x="914" y="663" type="curve"/>
      <point x="1243" y="1225" type="line"/>
      <point x="1401" y="1242" type="line"/>
      <point x="1401" y="1292" type="line"/>
      <point x="881" y="1292" type="line"/>
      <point x="881" y="1242" type="line"/>
      <point x="1039" y="1228" type="line"/>
      <point x="818" y="707" type="line"/>
      <point x="593" y="1226" type="line"/>
      <point x="728" y="1242" type="line"/>
      <point x="728" y="1292" type="line"/>
      <point x="29" y="1292" type="line"/>
      <point x="29" y="1242" type="line"/>
      <point x="148" y="1225" type="line"/>
      <point x="540" y="677" type="line"/>
      <point x="179" y="66" type="line"/>
      <point x="24" y="52" type="line"/>
      <point x="24" y="0" type="line"/>
      <point x="563" y="0" type="line"/>
      <point x="563" y="52" type="line"/>
      <point x="392" y="66" type="line"/>
      <point x="640" y="633" type="line"/>
      <point x="784" y="134"/>
      <point x="966" y="39"/>
      <point x="966" y="-36" type="curve" smooth="yes"/>
      <point x="966" y="-138"/>
      <point x="953" y="-205"/>
      <point x="816" y="-242" type="curve"/>
      <point x="926" y="-334" type="line"/>
      <point x="1126" y="-253"/>
      <point x="1314" y="-117"/>
      <point x="1314" y="-23" type="curve" smooth="yes"/>
      <point x="1314" y="104"/>
      <point x="1068" y="266"/>
    </contour>
  </outline>
</glyph>
<glyph name="hardsign-cy.sc" format="1">
  <advance width="1708"/>
  <outline>
    <contour>
      <point x="852" y="-144" type="move" name="mark0"/>
    </contour>
    <contour>
      <point x="1162" y="799" type="curve" smooth="yes"/>
      <point x="928" y="799" type="line"/>
      <point x="928" y="1228" type="line"/>
      <point x="1151" y="1241" type="line"/>
      <point x="1151" y="1292" type="line"/>
      <point x="86" y="1292" type="line"/>
      <point x="51" y="934" type="line"/>
      <point x="266" y="934" type="line"/>
      <point x="342" y="1227" type="line"/>
      <point x="546" y="1240" type="line"/>
      <point x="546" y="68" type="line"/>
      <point x="259" y="51" type="line"/>
      <point x="259" y="0" type="line"/>
      <point x="751" y="0" type="line" smooth="yes"/>
      <point x="831" y="0"/>
      <point x="1118" y="-14"/>
      <point x="1164" y="-14" type="curve" smooth="yes"/>
      <point x="1481" y="-14"/>
      <point x="1666" y="126"/>
      <point x="1666" y="411" type="curve" smooth="yes"/>
      <point x="1666" y="655"/>
      <point x="1517" y="799"/>
    </contour>
    <contour>
      <point x="928" y="61" type="curve"/>
      <point x="928" y="730" type="line"/>
      <point x="1060" y="730" type="line" smooth="yes"/>
      <point x="1189" y="730"/>
      <point x="1273" y="608"/>
      <point x="1273" y="407" type="curve" smooth="yes"/>
      <point x="1273" y="156"/>
      <point x="1226" y="44"/>
      <point x="1040" y="44" type="curve" smooth="yes"/>
      <point x="998" y="44"/>
      <point x="957" y="54"/>
    </contour>
  </outline>
</glyph>
<glyph name="hastroke-cy.sc" format="1">
  <advance width="1427"/>
  <outline>
    <contour>
      <point x="1240" y="699" type="line"/>
      <point x="181" y="699" type="line"/>
      <point x="181" y="642" type="line"/>
      <point x="1240" y="642" type="line"/>
    </contour>
    <contour>
      <point x="176" y="66" type="line"/>
      <point x="21" y="52" type="line"/>
      <point x="21" y="0" type="line"/>
      <point x="560" y="0" type="line"/>
      <point x="560" y="52" type="line"/>
      <point x="388" y="66" type="line"/>
      <point x="616" y="631" type="line"/>
      <point x="852" y="68" type="line"/>
      <point x="714" y="52" type="line"/>
      <point x="714" y="0" type="line"/>
      <point x="1413" y="0" type="line"/>
      <point x="1413" y="52" type="line"/>
      <point x="1296" y="68" type="line"/>
      <point x="889" y="659" type="line"/>
      <point x="1240" y="1225" type="line"/>
      <point x="1398" y="1242" type="line"/>
      <point x="1398" y="1292" type="line"/>
      <point x="878" y="1292" type="line"/>
      <point x="878" y="1242" type="line"/>
      <point x="1035" y="1228" type="line"/>
      <point x="805" y="700" type="line"/>
      <point x="589" y="1226" type="line"/>
      <point x="726" y="1242" type="line"/>
      <point x="726" y="1292" type="line"/>
      <point x="25" y="1292" type="line"/>
      <point x="25" y="1242" type="line"/>
      <point x="144" y="1225" type="line"/>
      <point x="525" y="673" type="line"/>
    </contour>
  </outline>
</glyph>
<glyph name="ia-cy.sc" format="1">
  <advance width="1456"/>
  <outline>
    <contour>
      <point x="862" y="583" type="curve"/>
      <point x="862" y="66" type="line"/>
      <point x="699" y="51" type="line"/>
      <point x="699" y="0" type="line"/>
      <point x="1393" y="0" type="line"/>
      <point x="1393" y="51" type="line"/>
      <point x="1243" y="66" type="line"/>
      <point x="1243" y="1228" type="line"/>
      <point x="1384" y="1242" type="line"/>
      <point x="1384" y="1292" type="line"/>
      <point x="1060" y="1292" type="line" smooth="yes"/>
      <point x="931" y="1292"/>
      <point x="864" y="1308"/>
      <point x="703" y="1308" type="curve" smooth="yes"/>
      <point x="289" y="1308"/>
      <point x="150" y="1281"/>
      <point x="150" y="927" type="curve" smooth="yes"/>
      <point x="150" y="720"/>
      <point x="241" y="617"/>
      <point x="435" y="575" type="curve"/>
      <point x="191" y="495"/>
      <point x="178" y="82"/>
      <point x="80" y="69" type="curve"/>
      <point x="16" y="51" type="line"/>
      <point x="16" y="0" type="line"/>
      <point x="431" y="0" type="line" smooth="yes"/>
      <point x="505" y="0"/>
      <point x="556" y="478"/>
      <point x="691" y="583" type="curve"/>
      <point x="794" y="584"/>
      <point x="832" y="584"/>
    </contour>
    <contour>
      <point x="862" y="1224" type="curve"/>
      <point x="862" y="660" type="line"/>
      <point x="844" y="658"/>
      <point x="788" y="654"/>
      <point x="763" y="654" type="curve" smooth="yes"/>
      <point x="625" y="654"/>
      <point x="553" y="768"/>
      <point x="553" y="954" type="curve" smooth="yes"/>
      <point x="553" y="1185"/>
      <point x="635" y="1239"/>
      <point x="759" y="1239" type="curve" smooth="yes"/>
      <point x="819" y="1239"/>
      <point x="845" y="1225"/>
    </contour>
  </outline>
</glyph>
<glyph name="ii-cy.sc" format="1">
  <advance width="1679"/>
  <outline>
    <contour>
      <point x="852" y="1263" type="move" name="top"/>
    </contour>
    <contour>
      <point x="1511" y="0" type="move" name="bottomright"/>
    </contour>
    <contour>
      <point x="78" y="1292" type="line"/>
      <point x="78" y="1242" type="line"/>
      <point x="207" y="1227" type="line"/>
      <point x="207" y="67" type="line"/>
      <point x="77" y="52" type="line"/>
      <point x="77" y="0" type="line"/>
      <point x="739" y="0" type="line"/>
      <point x="739" y="52" type="line"/>
      <point x="589" y="69" type="line"/>
      <point x="589" y="145" type="line"/>
      <point x="1006" y="856" type="line"/>
      <point x="1086" y="1074" type="line"/>
      <point x="1086" y="68" type="line"/>
      <point x="948" y="52" type="line"/>
      <point x="948" y="0" type="line"/>
      <point x="1596" y="0" type="line"/>
      <point x="1596" y="52" type="line"/>
      <point x="1466" y="68" type="line"/>
      <point x="1466" y="1228" type="line"/>
      <point x="1596" y="1242" type="line"/>
      <point x="1596" y="1292" type="line"/>
      <point x="948" y="1292" type="line"/>
      <point x="948" y="1242" type="line"/>
      <point x="1086" y="1228" type="line"/>
      <point x="1086" y="1169" type="line"/>
      <point x="681" y="475" type="line"/>
      <point x="589" y="237" type="line"/>
      <point x="589" y="1229" type="line"/>
      <point x="736" y="1244" type="line"/>
      <point x="736" y="1292" type="line"/>
    </contour>
  </outline>
</glyph>
<glyph name="iishorttail-cy.sc" format="1">
  <advance width="1678"/>
  <outline>
    <contour>
      <point x="1466" y="0" type="move" name="bottomright"/>
    </contour>
    <contour>
      <point x="1619" y="0" type="curve"/>
      <point x="1619" y="67" type="line"/>
      <point x="1424" y="67" type="line"/>
      <point x="1322" y="0" type="line"/>
      <point x="1331" y="0" type="line"/>
      <point x="1309" y="-31"/>
      <point x="1261" y="-333"/>
      <point x="1198" y="-290" type="curve"/>
      <point x="1395" y="-290" type="line"/>
      <point x="1440" y="-291"/>
      <point x="1556" y="43"/>
    </contour>
    <contour>
      <point x="678" y="1973" type="curve" smooth="yes"/>
      <point x="481" y="1973" type="line"/>
      <point x="477" y="1964"/>
      <point x="476" y="1956"/>
      <point x="476" y="1951" type="curve" smooth="yes"/>
      <point x="476" y="1743"/>
      <point x="610" y="1571"/>
      <point x="836" y="1571" type="curve" smooth="yes"/>
      <point x="1061" y="1571"/>
      <point x="1196" y="1740"/>
      <point x="1196" y="1951" type="curve" smooth="yes"/>
      <point x="1196" y="1956"/>
      <point x="1195" y="1964"/>
      <point x="1192" y="1973" type="curve"/>
      <point x="995" y="1973" type="line" smooth="yes"/>
      <point x="934" y="1973"/>
      <point x="923" y="1947"/>
      <point x="923" y="1939" type="curve" smooth="yes"/>
      <point x="923" y="1850"/>
      <point x="909" y="1687"/>
      <point x="835" y="1687" type="curve" smooth="yes"/>
      <point x="762" y="1687"/>
      <point x="750" y="1850"/>
      <point x="750" y="1939" type="curve" smooth="yes"/>
      <point x="750" y="1947"/>
      <point x="738" y="1973"/>
    </contour>
    <contour>
      <point x="78" y="1292" type="line"/>
      <point x="78" y="1242" type="line"/>
      <point x="207" y="1227" type="line"/>
      <point x="207" y="67" type="line"/>
      <point x="77" y="52" type="line"/>
      <point x="77" y="0" type="line"/>
      <point x="739" y="0" type="line"/>
      <point x="739" y="52" type="line"/>
      <point x="589" y="69" type="line"/>
      <point x="589" y="145" type="line"/>
      <point x="1006" y="856" type="line"/>
      <point x="1086" y="1074" type="line"/>
      <point x="1086" y="68" type="line"/>
      <point x="948" y="52" type="line"/>
      <point x="948" y="0" type="line"/>
      <point x="1596" y="0" type="line"/>
      <point x="1596" y="52" type="line"/>
      <point x="1466" y="68" type="line"/>
      <point x="1466" y="1228" type="line"/>
      <point x="1596" y="1242" type="line"/>
      <point x="1596" y="1292" type="line"/>
      <point x="948" y="1292" type="line"/>
      <point x="948" y="1242" type="line"/>
      <point x="1086" y="1228" type="line"/>
      <point x="1086" y="1169" type="line"/>
      <point x="681" y="475" type="line"/>
      <point x="589" y="237" type="line"/>
      <point x="589" y="1229" type="line"/>
      <point x="736" y="1244" type="line"/>
      <point x="736" y="1292" type="line"/>
    </contour>
  </outline>
</glyph>
<glyph name="iu-cy.sc" format="1">
  <advance width="2198"/>
  <outline>
    <contour>
      <point x="836" y="699" type="curve"/>
      <point x="595" y="699" type="line"/>
      <point x="595" y="1228" type="line"/>
      <point x="745" y="1242" type="line"/>
      <point x="745" y="1292" type="line"/>
      <point x="73" y="1292" type="line"/>
      <point x="73" y="1242" type="line"/>
      <point x="211" y="1228" type="line"/>
      <point x="211" y="68" type="line"/>
      <point x="71" y="52" type="line"/>
      <point x="71" y="0" type="line"/>
      <point x="749" y="0" type="line"/>
      <point x="749" y="52" type="line"/>
      <point x="596" y="68" type="line"/>
      <point x="596" y="644" type="line"/>
      <point x="835" y="644" type="line"/>
      <point x="852" y="254"/>
      <point x="1035" y="-15"/>
      <point x="1476" y="-15" type="curve" smooth="yes"/>
      <point x="1881" y="-15"/>
      <point x="2129" y="225"/>
      <point x="2130" y="654" type="curve" smooth="yes"/>
      <point x="2131" y="1027"/>
      <point x="1961" y="1307"/>
      <point x="1490" y="1306" type="curve" smooth="yes"/>
      <point x="1120" y="1306"/>
      <point x="873" y="1088"/>
    </contour>
    <contour>
      <point x="1481" y="1235" type="curve" smooth="yes"/>
      <point x="1625" y="1235"/>
      <point x="1708" y="939"/>
      <point x="1708" y="655" type="curve" smooth="yes"/>
      <point x="1708" y="247"/>
      <point x="1638" y="59"/>
      <point x="1485" y="59" type="curve" smooth="yes"/>
      <point x="1337" y="59"/>
      <point x="1252" y="349"/>
      <point x="1252" y="626" type="curve" smooth="yes"/>
      <point x="1252" y="1053"/>
      <point x="1329" y="1235"/>
    </contour>
  </outline>
</glyph>
<glyph name="izhitsa-cy.sc" format="1">
  <advance width="1529"/>
  <outline>
    <contour>
      <point x="1069" y="1080" type="curve"/>
      <point x="875" y="358" type="line"/>
      <point x="843" y="74" type="line"/>
      <point x="806" y="360" type="line"/>
      <point x="564" y="1229" type="line"/>
      <point x="717" y="1242" type="line"/>
      <point x="717" y="1292" type="line"/>
      <point x="30" y="1292" type="line"/>
      <point x="30" y="1242" type="line"/>
      <point x="146" y="1229" type="line"/>
      <point x="618" y="-15" type="line"/>
      <point x="928" y="-15" type="line"/>
      <point x="1270" y="1012" type="line"/>
      <point x="1320" y="1193"/>
      <point x="1394" y="1198"/>
      <point x="1505" y="1198" type="curve" smooth="yes"/>
      <point x="1506" y="1198"/>
      <point x="1509" y="1198"/>
      <point x="1509" y="1198" type="curve"/>
      <point x="1509" y="1282" type="line"/>
      <point x="1487" y="1283"/>
      <point x="1430" y="1289"/>
      <point x="1322" y="1289" type="curve" smooth="yes"/>
      <point x="1208" y="1289"/>
      <point x="1101" y="1245"/>
    </contour>
  </outline>
</glyph>
<glyph name="ka-cy.sc" format="1">
  <advance width="1457"/>
  <outline>
    <contour>
      <point x="728" y="1263" type="move" name="top"/>
    </contour>
    <contour>
      <point x="728" y="648" type="move" name="center"/>
    </contour>
    <contour>
      <point x="1405" y="0" type="move" name="bottomright"/>
    </contour>
    <contour>
      <point x="916" y="651" type="curve"/>
      <point x="1250" y="1228" type="line"/>
      <point x="1418" y="1242" type="line"/>
      <point x="1418" y="1292" type="line"/>
      <point x="867" y="1292" type="line"/>
      <point x="867" y="1242" type="line"/>
      <point x="987" y="1227" type="line"/>
      <point x="701" y="661" type="line"/>
      <point x="593" y="661" type="line"/>
      <point x="593" y="1228" type="line"/>
      <point x="726" y="1242" type="line"/>
      <point x="726" y="1292" type="line"/>
      <point x="73" y="1292" type="line"/>
      <point x="73" y="1242" type="line"/>
      <point x="211" y="1228" type="line"/>
      <point x="211" y="68" type="line"/>
      <point x="73" y="55" type="line"/>
      <point x="73" y="0" type="line"/>
      <point x="768" y="0" type="line"/>
      <point x="768" y="53" type="line"/>
      <point x="593" y="68" type="line"/>
      <point x="593" y="601" type="line"/>
      <point x="645" y="601" type="line" smooth="yes"/>
      <point x="862" y="601"/>
      <point x="894" y="0"/>
      <point x="1056" y="0" type="curve"/>
      <point x="1452" y="0" type="line"/>
      <point x="1452" y="52" type="line"/>
      <point x="1383" y="68" type="line" smooth="yes"/>
      <point x="1285" y="92"/>
      <point x="1211" y="569"/>
    </contour>
  </outline>
</glyph>
<glyph name="kabashkir-cy.sc" format="1">
  <advance width="1796"/>
  <outline>
    <contour>
      <point x="1015" y="-144" type="move" name="mark0"/>
    </contour>
    <contour>
      <point x="1296" y="654" type="curve"/>
      <point x="1610" y="1228" type="line"/>
      <point x="1770" y="1242" type="line"/>
      <point x="1770" y="1292" type="line"/>
      <point x="1205" y="1292" type="line"/>
      <point x="1205" y="1242" type="line"/>
      <point x="1346" y="1227" type="line"/>
      <point x="1091" y="670" type="line"/>
      <point x="938" y="670" type="line"/>
      <point x="938" y="1228" type="line"/>
      <point x="1071" y="1242" type="line"/>
      <point x="1071" y="1292" type="line"/>
      <point x="81" y="1292" type="line"/>
      <point x="53" y="928" type="line"/>
      <point x="266" y="928" type="line"/>
      <point x="338" y="1227" type="line"/>
      <point x="556" y="1240" type="line"/>
      <point x="556" y="68" type="line"/>
      <point x="404" y="52" type="line"/>
      <point x="404" y="0" type="line"/>
      <point x="1107" y="0" type="line"/>
      <point x="1107" y="53" type="line"/>
      <point x="938" y="66" type="line"/>
      <point x="938" y="594" type="line"/>
      <point x="971" y="594" type="line" smooth="yes"/>
      <point x="1192" y="594"/>
      <point x="1274" y="0"/>
      <point x="1453" y="0" type="curve"/>
      <point x="1827" y="0" type="line"/>
      <point x="1827" y="52" type="line"/>
      <point x="1740" y="71" type="line" smooth="yes"/>
      <point x="1653" y="96"/>
      <point x="1541" y="561"/>
    </contour>
  </outline>
</glyph>
<glyph name="kadescender-cy.sc" format="1">
  <advance width="1503"/>
  <outline>
    <contour>
      <point x="912" y="651" type="curve"/>
      <point x="1247" y="1228" type="line"/>
      <point x="1415" y="1242" type="line"/>
      <point x="1415" y="1292" type="line"/>
      <point x="862" y="1292" type="line"/>
      <point x="862" y="1242" type="line"/>
      <point x="984" y="1227" type="line"/>
      <point x="696" y="661" type="line"/>
      <point x="590" y="661" type="line"/>
      <point x="590" y="1228" type="line"/>
      <point x="722" y="1242" type="line"/>
      <point x="722" y="1292" type="line"/>
      <point x="69" y="1292" type="line"/>
      <point x="69" y="1242" type="line"/>
      <point x="206" y="1228" type="line"/>
      <point x="206" y="68" type="line"/>
      <point x="69" y="55" type="line"/>
      <point x="69" y="0" type="line"/>
      <point x="763" y="0" type="line"/>
      <point x="763" y="53" type="line"/>
      <point x="590" y="68" type="line"/>
      <point x="590" y="601" type="line"/>
      <point x="641" y="601" type="line" smooth="yes"/>
      <point x="858" y="601"/>
      <point x="891" y="0"/>
      <point x="1051" y="0" type="curve" smooth="yes"/>
      <point x="1203" y="0" type="line"/>
      <point x="1230" y="7"/>
      <point x="1273" y="-277"/>
      <point x="1273" y="-292" type="curve"/>
      <point x="1469" y="-292" type="line"/>
      <point x="1477" y="-132"/>
      <point x="1517" y="-41"/>
      <point x="1519" y="68" type="curve"/>
      <point x="1378" y="68" type="line"/>
      <point x="1283" y="103"/>
      <point x="1207" y="569"/>
    </contour>
  </outline>
</glyph>
<glyph name="kahook-cy.sc" format="1">
  <advance width="1482"/>
  <outline>
    <contour>
      <point x="593" y="676" type="curve"/>
      <point x="593" y="1228" type="line"/>
      <point x="726" y="1242" type="line"/>
      <point x="726" y="1292" type="line"/>
      <point x="73" y="1292" type="line"/>
      <point x="73" y="1242" type="line"/>
      <point x="211" y="1228" type="line"/>
      <point x="211" y="68" type="line"/>
      <point x="73" y="55" type="line"/>
      <point x="73" y="0" type="line"/>
      <point x="768" y="0" type="line"/>
      <point x="768" y="53" type="line"/>
      <point x="593" y="68" type="line"/>
      <point x="593" y="622" type="line"/>
      <point x="632" y="643"/>
      <point x="711" y="661"/>
      <point x="812" y="661" type="curve" smooth="yes"/>
      <point x="964" y="661"/>
      <point x="1030" y="540"/>
      <point x="1030" y="311" type="curve" smooth="yes"/>
      <point x="1030" y="-84"/>
      <point x="979" y="-259"/>
      <point x="820" y="-259" type="curve" smooth="yes"/>
      <point x="738" y="-259"/>
      <point x="702" y="-260"/>
      <point x="684" y="-258" type="curve"/>
      <point x="698" y="-329" type="line"/>
      <point x="729" y="-338"/>
      <point x="780" y="-335"/>
      <point x="884" y="-335" type="curve" smooth="yes"/>
      <point x="1206" y="-335"/>
      <point x="1411" y="-44"/>
      <point x="1411" y="310" type="curve" smooth="yes"/>
      <point x="1411" y="526"/>
      <point x="1238" y="732"/>
      <point x="973" y="735" type="curve"/>
      <point x="1265" y="1228" type="line"/>
      <point x="1426" y="1242" type="line"/>
      <point x="1426" y="1292" type="line"/>
      <point x="860" y="1292" type="line"/>
      <point x="860" y="1242" type="line"/>
      <point x="1004" y="1228" type="line"/>
      <point x="743" y="730" type="line"/>
      <point x="705" y="716"/>
      <point x="616" y="697"/>
    </contour>
  </outline>
</glyph>
<glyph name="kastroke-cy.sc" format="1">
  <advance width="1464"/>
  <outline>
    <contour>
      <point x="678" y="-144" type="move" name="mark0"/>
    </contour>
    <contour>
      <point x="961" y="650" type="curve"/>
      <point x="1258" y="1229" type="line"/>
      <point x="1426" y="1242" type="line"/>
      <point x="1426" y="1292" type="line"/>
      <point x="873" y="1292" type="line"/>
      <point x="873" y="1242" type="line"/>
      <point x="997" y="1227" type="line"/>
      <point x="746" y="660" type="line"/>
      <point x="600" y="660" type="line"/>
      <point x="600" y="916" type="line"/>
      <point x="760" y="916" type="line"/>
      <point x="760" y="991" type="line"/>
      <point x="600" y="991" type="line"/>
      <point x="600" y="1229" type="line"/>
      <point x="735" y="1242" type="line"/>
      <point x="735" y="1292" type="line"/>
      <point x="79" y="1292" type="line"/>
      <point x="79" y="1242" type="line"/>
      <point x="220" y="1229" type="line"/>
      <point x="220" y="991" type="line"/>
      <point x="68" y="991" type="line"/>
      <point x="68" y="916" type="line"/>
      <point x="220" y="916" type="line"/>
      <point x="220" y="69" type="line"/>
      <point x="79" y="55" type="line"/>
      <point x="79" y="0" type="line"/>
      <point x="775" y="0" type="line"/>
      <point x="775" y="53" type="line"/>
      <point x="600" y="69" type="line"/>
      <point x="600" y="601" type="line"/>
      <point x="691" y="601" type="line" smooth="yes"/>
      <point x="907" y="601"/>
      <point x="903" y="0"/>
      <point x="1064" y="0" type="curve" smooth="yes"/>
      <point x="1459" y="0" type="line"/>
      <point x="1459" y="52" type="line"/>
      <point x="1393" y="69" type="line" smooth="yes"/>
      <point x="1294" y="91"/>
      <point x="1258" y="569"/>
    </contour>
  </outline>
</glyph>
<glyph name="kaverticalstroke-cy.sc" format="1">
  <advance width="1610"/>
  <outline>
    <contour>
      <point x="1106" y="650" type="curve"/>
      <point x="1381" y="1227" type="line"/>
      <point x="1546" y="1242" type="line"/>
      <point x="1546" y="1292" type="line"/>
      <point x="974" y="1292" type="line"/>
      <point x="974" y="1242" type="line"/>
      <point x="1118" y="1225" type="line"/>
      <point x="899" y="670" type="line"/>
      <point x="840" y="670" type="line"/>
      <point x="840" y="964" type="line"/>
      <point x="707" y="964" type="line"/>
      <point x="707" y="670" type="line"/>
      <point x="593" y="670" type="line"/>
      <point x="593" y="1228" type="line"/>
      <point x="726" y="1242" type="line"/>
      <point x="726" y="1292" type="line"/>
      <point x="73" y="1292" type="line"/>
      <point x="73" y="1242" type="line"/>
      <point x="211" y="1228" type="line"/>
      <point x="211" y="68" type="line"/>
      <point x="73" y="55" type="line"/>
      <point x="73" y="0" type="line"/>
      <point x="768" y="0" type="line"/>
      <point x="768" y="53" type="line"/>
      <point x="593" y="68" type="line"/>
      <point x="593" y="594" type="line"/>
      <point x="707" y="594" type="line"/>
      <point x="707" y="314" type="line"/>
      <point x="840" y="314" type="line"/>
      <point x="840" y="592" type="line"/>
      <point x="891" y="592" type="line" smooth="yes"/>
      <point x="1054" y="640"/>
      <point x="1066" y="0"/>
      <point x="1278" y="0" type="curve" smooth="yes"/>
      <point x="1617" y="2" type="line"/>
      <point x="1617" y="52" type="line"/>
      <point x="1550" y="71" type="line" smooth="yes"/>
      <point x="1464" y="96"/>
      <point x="1363" y="547"/>
    </contour>
  </outline>
</glyph>
<glyph name="komidje-cy.sc" format="1">
  <advance width="2086"/>
  <outline>
    <contour>
      <point x="1938" y="286" type="curve" smooth="yes"/>
      <point x="1938" y="615" type="line"/>
      <point x="2066" y="631" type="line"/>
      <point x="2066" y="694" type="line"/>
      <point x="1412" y="694" type="line"/>
      <point x="1412" y="631" type="line"/>
      <point x="1551" y="614" type="line"/>
      <point x="1551" y="330" type="line" smooth="yes"/>
      <point x="1551" y="140"/>
      <point x="1498" y="54"/>
      <point x="1362" y="54" type="curve" smooth="yes"/>
      <point x="1228" y="54"/>
      <point x="1160" y="145"/>
      <point x="1158" y="335" type="curve" smooth="yes"/>
      <point x="1158" y="1236" type="line"/>
      <point x="1296" y="1259" type="line"/>
      <point x="1296" y="1292" type="line"/>
      <point x="577" y="1292" type="line"/>
      <point x="579" y="1259" type="line"/>
      <point x="776" y="1236" type="line"/>
      <point x="776" y="769" type="line"/>
      <point x="736" y="775"/>
      <point x="637" y="785"/>
      <point x="543" y="785" type="curve" smooth="yes"/>
      <point x="207" y="785"/>
      <point x="45" y="660"/>
      <point x="45" y="366" type="curve" smooth="yes"/>
      <point x="45" y="133"/>
      <point x="246" y="-12"/>
      <point x="532" y="-12" type="curve" smooth="yes"/>
      <point x="735" y="-12"/>
      <point x="843" y="-6"/>
      <point x="932" y="59" type="curve"/>
      <point x="1026" y="14"/>
      <point x="1166" y="-14"/>
      <point x="1345" y="-14" type="curve" smooth="yes"/>
      <point x="1687" y="-14"/>
      <point x="1938" y="111"/>
    </contour>
    <contour>
      <point x="776" y="703" type="curve"/>
      <point x="776" y="292" type="line" smooth="yes"/>
      <point x="776" y="251"/>
      <point x="785" y="193"/>
      <point x="799" y="140" type="curve"/>
      <point x="774" y="84"/>
      <point x="714" y="62"/>
      <point x="666" y="62" type="curve" smooth="yes"/>
      <point x="497" y="62"/>
      <point x="449" y="153"/>
      <point x="449" y="377" type="curve" smooth="yes"/>
      <point x="449" y="618"/>
      <point x="510" y="722"/>
      <point x="644" y="722" type="curve" smooth="yes"/>
      <point x="707" y="722"/>
      <point x="737" y="712"/>
    </contour>
  </outline>
</glyph>
<glyph name="komidzje-cy.sc" format="1">
  <advance width="1426"/>
  <outline>
    <contour>
      <point x="493" y="691" type="curve" smooth="yes"/>
      <point x="391" y="691" type="line"/>
      <point x="391" y="630" type="line"/>
      <point x="508" y="630" type="line" smooth="yes"/>
      <point x="708" y="630"/>
      <point x="750" y="521"/>
      <point x="750" y="326" type="curve" smooth="yes"/>
      <point x="750" y="245"/>
      <point x="686" y="87"/>
      <point x="588" y="86" type="curve"/>
      <point x="588" y="0" type="line"/>
      <point x="1093" y="0" type="line"/>
      <point x="1104" y="17"/>
      <point x="1138" y="-193"/>
      <point x="1141" y="-290" type="curve"/>
      <point x="1329" y="-290" type="line"/>
      <point x="1343" y="157"/>
      <point x="1384" y="-76"/>
      <point x="1383" y="79" type="curve"/>
      <point x="1108" y="79" type="line"/>
      <point x="1136" y="104"/>
      <point x="1187" y="220"/>
      <point x="1187" y="322" type="curve" smooth="yes"/>
      <point x="1187" y="508"/>
      <point x="1025" y="686"/>
      <point x="782" y="682" type="curve"/>
      <point x="956" y="709"/>
      <point x="1106" y="816"/>
      <point x="1106" y="1016" type="curve" smooth="yes"/>
      <point x="1106" y="1216"/>
      <point x="919" y="1306"/>
      <point x="561" y="1306" type="curve" smooth="yes"/>
      <point x="415" y="1306"/>
      <point x="174" y="1254"/>
      <point x="94" y="1246" type="curve"/>
      <point x="130" y="1009" type="line"/>
      <point x="336" y="1009" type="line"/>
      <point x="379" y="1154" type="line"/>
      <point x="390" y="1207"/>
      <point x="425" y="1236"/>
      <point x="517" y="1236" type="curve" smooth="yes"/>
      <point x="635" y="1236"/>
      <point x="704" y="1169"/>
      <point x="704" y="988" type="curve"/>
      <point x="704" y="806"/>
      <point x="593" y="691"/>
    </contour>
  </outline>
</glyph>
<glyph name="komilje-cy.sc" format="1">
  <advance width="2246"/>
  <outline>
    <contour>
      <point x="613" y="-144" type="move" name="mark0"/>
    </contour>
    <contour>
      <point x="2096" y="286" type="curve" smooth="yes"/>
      <point x="2096" y="615" type="line"/>
      <point x="2226" y="631" type="line"/>
      <point x="2226" y="696" type="line"/>
      <point x="1570" y="696" type="line"/>
      <point x="1570" y="631" type="line"/>
      <point x="1712" y="615" type="line"/>
      <point x="1712" y="330" type="line" smooth="yes"/>
      <point x="1712" y="140"/>
      <point x="1659" y="54"/>
      <point x="1520" y="54" type="curve" smooth="yes"/>
      <point x="1371" y="54"/>
      <point x="1316" y="138"/>
      <point x="1316" y="335" type="curve" smooth="yes"/>
      <point x="1316" y="1229" type="line"/>
      <point x="1493" y="1242" type="line"/>
      <point x="1493" y="1292" type="line"/>
      <point x="191" y="1292" type="line"/>
      <point x="191" y="1242" type="line"/>
      <point x="437" y="1229" type="line"/>
      <point x="437" y="1047" type="line" smooth="yes"/>
      <point x="437" y="587"/>
      <point x="386" y="306"/>
      <point x="329" y="170" type="curve"/>
      <point x="297" y="136"/>
      <point x="265" y="108"/>
      <point x="211" y="108" type="curve" smooth="yes"/>
      <point x="145" y="108"/>
      <point x="110" y="112"/>
      <point x="61" y="116" type="curve"/>
      <point x="83" y="0" type="line"/>
      <point x="124" y="-2"/>
      <point x="180" y="-9"/>
      <point x="245" y="-9" type="curve" smooth="yes"/>
      <point x="352" y="-9"/>
      <point x="418" y="24"/>
      <point x="469" y="103" type="curve" smooth="yes"/>
      <point x="564" y="264"/>
      <point x="604" y="587"/>
      <point x="604" y="1033" type="curve" smooth="yes"/>
      <point x="604" y="1229" type="line"/>
      <point x="934" y="1229" type="line"/>
      <point x="934" y="292" type="line" smooth="yes"/>
      <point x="934" y="104"/>
      <point x="1091" y="-14"/>
      <point x="1506" y="-14" type="curve" smooth="yes"/>
      <point x="1844" y="-14"/>
      <point x="2096" y="111"/>
    </contour>
  </outline>
</glyph>
<glyph name="kominje-cy.sc" format="1">
  <advance width="2353"/>
  <outline>
    <contour>
      <point x="1440" y="335" type="curve" smooth="yes"/>
      <point x="1440" y="1227" type="line"/>
      <point x="1582" y="1246" type="line"/>
      <point x="1582" y="1292" type="line"/>
      <point x="892" y="1292" type="line"/>
      <point x="892" y="1246" type="line"/>
      <point x="1056" y="1226" type="line"/>
      <point x="1056" y="699" type="line"/>
      <point x="596" y="699" type="line"/>
      <point x="596" y="1228" type="line"/>
      <point x="749" y="1242" type="line"/>
      <point x="749" y="1292" type="line"/>
      <point x="77" y="1292" type="line"/>
      <point x="77" y="1242" type="line"/>
      <point x="211" y="1227" type="line"/>
      <point x="211" y="66" type="line"/>
      <point x="71" y="52" type="line"/>
      <point x="71" y="0" type="line"/>
      <point x="735" y="0" type="line"/>
      <point x="735" y="52" type="line"/>
      <point x="596" y="66" type="line"/>
      <point x="596" y="635" type="line"/>
      <point x="1056" y="635" type="line"/>
      <point x="1056" y="292" type="line" smooth="yes"/>
      <point x="1056" y="93"/>
      <point x="1211" y="-14"/>
      <point x="1613" y="-14" type="curve" smooth="yes"/>
      <point x="1953" y="-14"/>
      <point x="2203" y="111"/>
      <point x="2203" y="286" type="curve" smooth="yes"/>
      <point x="2203" y="615" type="line"/>
      <point x="2332" y="631" type="line"/>
      <point x="2332" y="697" type="line"/>
      <point x="1679" y="697" type="line"/>
      <point x="1679" y="631" type="line"/>
      <point x="1820" y="615" type="line"/>
      <point x="1820" y="331" type="line" smooth="yes"/>
      <point x="1820" y="140"/>
      <point x="1766" y="54"/>
      <point x="1626" y="54" type="curve" smooth="yes"/>
      <point x="1501" y="54"/>
      <point x="1442" y="145"/>
    </contour>
  </outline>
</glyph>
<glyph name="komisje-cy.sc" format="1">
  <advance width="1510"/>
  <outline>
    <contour>
      <point x="745" y="-144" type="move" name="mark0"/>
    </contour>
    <contour>
      <point x="1354" y="286" type="curve" smooth="yes"/>
      <point x="1354" y="615" type="line"/>
      <point x="1482" y="631" type="line"/>
      <point x="1482" y="697" type="line"/>
      <point x="860" y="697" type="line"/>
      <point x="860" y="631" type="line"/>
      <point x="1001" y="615" type="line"/>
      <point x="1001" y="331" type="line" smooth="yes"/>
      <point x="1001" y="140"/>
      <point x="948" y="55"/>
      <point x="807" y="54" type="curve" smooth="yes"/>
      <point x="605" y="54"/>
      <point x="500" y="382"/>
      <point x="500" y="668" type="curve" smooth="yes"/>
      <point x="500" y="1039"/>
      <point x="613" y="1236"/>
      <point x="830" y="1236" type="curve" smooth="yes"/>
      <point x="942" y="1236"/>
      <point x="983" y="1204"/>
      <point x="1010" y="1185" type="curve"/>
      <point x="1068" y="984" type="line"/>
      <point x="1336" y="984" type="line"/>
      <point x="1362" y="1252" type="line"/>
      <point x="1288" y="1264"/>
      <point x="1048" y="1306"/>
      <point x="839" y="1306" type="curve" smooth="yes"/>
      <point x="371" y="1306"/>
      <point x="58" y="1048"/>
      <point x="58" y="629" type="curve" smooth="yes"/>
      <point x="58" y="291"/>
      <point x="333" y="-14"/>
      <point x="795" y="-14" type="curve" smooth="yes"/>
      <point x="1119" y="-14"/>
      <point x="1354" y="110"/>
    </contour>
  </outline>
</glyph>
<glyph name="komitje-cy.sc" format="1">
  <advance width="1857"/>
  <outline>
    <contour>
      <point x="851" y="-144" type="move" name="mark0"/>
    </contour>
    <contour>
      <point x="930" y="335" type="curve" smooth="yes"/>
      <point x="930" y="1238" type="line"/>
      <point x="1174" y="1238" type="line"/>
      <point x="1244" y="894" type="line"/>
      <point x="1453" y="894" type="line"/>
      <point x="1417" y="1292" type="line"/>
      <point x="70" y="1292" type="line"/>
      <point x="44" y="894" type="line"/>
      <point x="231" y="894" type="line"/>
      <point x="304" y="1238" type="line"/>
      <point x="546" y="1238" type="line"/>
      <point x="546" y="292" type="line" smooth="yes"/>
      <point x="546" y="106"/>
      <point x="704" y="-14"/>
      <point x="1119" y="-14" type="curve" smooth="yes"/>
      <point x="1456" y="-14"/>
      <point x="1706" y="108"/>
      <point x="1706" y="286" type="curve" smooth="yes"/>
      <point x="1706" y="615" type="line"/>
      <point x="1836" y="631" type="line"/>
      <point x="1836" y="697" type="line"/>
      <point x="1182" y="697" type="line"/>
      <point x="1182" y="631" type="line"/>
      <point x="1324" y="615" type="line"/>
      <point x="1324" y="331" type="line" smooth="yes"/>
      <point x="1324" y="143"/>
      <point x="1269" y="54"/>
      <point x="1130" y="54" type="curve" smooth="yes"/>
      <point x="980" y="54"/>
      <point x="930" y="145"/>
    </contour>
  </outline>
</glyph>
<glyph name="lje-cy.sc" format="1">
  <advance width="2088"/>
  <outline>
    <contour>
      <point x="647" y="-144" type="move" name="mark0"/>
    </contour>
    <contour>
      <point x="1313" y="711" type="curve"/>
      <point x="1313" y="1228" type="line"/>
      <point x="1490" y="1242" type="line"/>
      <point x="1490" y="1292" type="line"/>
      <point x="207" y="1292" type="line"/>
      <point x="207" y="1242" type="line"/>
      <point x="439" y="1227" type="line"/>
      <point x="439" y="1047" type="line" smooth="yes"/>
      <point x="439" y="591"/>
      <point x="389" y="303"/>
      <point x="332" y="166" type="curve"/>
      <point x="302" y="125"/>
      <point x="272" y="107"/>
      <point x="213" y="107" type="curve" smooth="yes"/>
      <point x="145" y="107"/>
      <point x="111" y="111"/>
      <point x="61" y="117" type="curve"/>
      <point x="86" y="0" type="line"/>
      <point x="128" y="-2"/>
      <point x="182" y="-8"/>
      <point x="248" y="-8" type="curve" smooth="yes"/>
      <point x="352" y="-8"/>
      <point x="419" y="24"/>
      <point x="472" y="99" type="curve" smooth="yes"/>
      <point x="567" y="265"/>
      <point x="607" y="578"/>
      <point x="607" y="1033" type="curve" smooth="yes"/>
      <point x="607" y="1229" type="line"/>
      <point x="935" y="1229" type="line"/>
      <point x="935" y="68" type="line"/>
      <point x="733" y="52" type="line"/>
      <point x="733" y="0" type="line"/>
      <point x="1135" y="0" type="line" smooth="yes"/>
      <point x="1217" y="0"/>
      <point x="1499" y="-14"/>
      <point x="1545" y="-14" type="curve" smooth="yes"/>
      <point x="1865" y="-14"/>
      <point x="2046" y="114"/>
      <point x="2046" y="378" type="curve" smooth="yes"/>
      <point x="2046" y="600"/>
      <point x="1894" y="732"/>
      <point x="1557" y="732" type="curve" smooth="yes"/>
      <point x="1486" y="732"/>
      <point x="1338" y="720"/>
    </contour>
    <contour>
      <point x="1313" y="60" type="curve"/>
      <point x="1313" y="641" type="line"/>
      <point x="1330" y="649"/>
      <point x="1400" y="654"/>
      <point x="1445" y="654" type="curve" smooth="yes"/>
      <point x="1593" y="654"/>
      <point x="1656" y="560"/>
      <point x="1656" y="370" type="curve" smooth="yes"/>
      <point x="1656" y="142"/>
      <point x="1612" y="44"/>
      <point x="1422" y="44" type="curve" smooth="yes"/>
      <point x="1380" y="44"/>
      <point x="1343" y="50"/>
    </contour>
  </outline>
</glyph>
<glyph name="nje-cy.sc" format="1">
  <advance width="2200"/>
  <outline>
    <contour>
      <point x="784" y="-144" type="move" name="mark0"/>
    </contour>
    <contour>
      <point x="1671" y="733" type="curve" smooth="yes"/>
      <point x="1428" y="733" type="line"/>
      <point x="1428" y="1226" type="line"/>
      <point x="1568" y="1246" type="line"/>
      <point x="1568" y="1292" type="line"/>
      <point x="894" y="1292" type="line"/>
      <point x="894" y="1246" type="line"/>
      <point x="1047" y="1227" type="line"/>
      <point x="1047" y="700" type="line"/>
      <point x="594" y="700" type="line"/>
      <point x="594" y="1228" type="line"/>
      <point x="752" y="1242" type="line"/>
      <point x="752" y="1292" type="line"/>
      <point x="73" y="1292" type="line"/>
      <point x="73" y="1242" type="line"/>
      <point x="211" y="1227" type="line"/>
      <point x="211" y="66" type="line"/>
      <point x="70" y="52" type="line"/>
      <point x="70" y="0" type="line"/>
      <point x="752" y="0" type="line"/>
      <point x="752" y="52" type="line"/>
      <point x="594" y="63" type="line"/>
      <point x="594" y="634" type="line"/>
      <point x="1047" y="634" type="line"/>
      <point x="1047" y="63" type="line"/>
      <point x="896" y="52" type="line"/>
      <point x="896" y="0" type="line"/>
      <point x="1252" y="0" type="line" smooth="yes"/>
      <point x="1331" y="0"/>
      <point x="1628" y="-20"/>
      <point x="1672" y="-20" type="curve" smooth="yes"/>
      <point x="1958" y="-20"/>
      <point x="2162" y="93"/>
      <point x="2162" y="380" type="curve" smooth="yes"/>
      <point x="2162" y="602"/>
      <point x="1969" y="733"/>
    </contour>
    <contour>
      <point x="1428" y="77" type="curve"/>
      <point x="1428" y="652" type="line"/>
      <point x="1560" y="652" type="line" smooth="yes"/>
      <point x="1687" y="652"/>
      <point x="1769" y="548"/>
      <point x="1769" y="371" type="curve" smooth="yes"/>
      <point x="1769" y="140"/>
      <point x="1727" y="51"/>
      <point x="1536" y="51" type="curve" smooth="yes"/>
      <point x="1492" y="51"/>
      <point x="1452" y="71"/>
    </contour>
  </outline>
</glyph>
<glyph name="obarred-cy.sc" format="1">
  <advance width="1410"/>
  <outline>
    <contour>
      <point x="717" y="1263" type="move" name="top"/>
    </contour>
    <contour>
      <point x="699" y="-144" type="move" name="mark0"/>
    </contour>
    <contour>
      <point x="714" y="1306" type="curve" smooth="yes"/>
      <point x="301" y="1306"/>
      <point x="46" y="1046"/>
      <point x="46" y="633" type="curve" smooth="yes"/>
      <point x="46" y="247"/>
      <point x="226" y="-28"/>
      <point x="698" y="-20" type="curve" smooth="yes"/>
      <point x="1114" y="-12"/>
      <point x="1364" y="243"/>
      <point x="1364" y="653" type="curve" smooth="yes"/>
      <point x="1364" y="1046"/>
      <point x="1191" y="1307"/>
    </contour>
    <contour>
      <point x="467" y="616" type="curve"/>
      <point x="942" y="616" type="line"/>
      <point x="930" y="237"/>
      <point x="843" y="44"/>
      <point x="704" y="44" type="curve" smooth="yes"/>
      <point x="566" y="44"/>
      <point x="473" y="313"/>
    </contour>
    <contour>
      <point x="945" y="683" type="curve"/>
      <point x="468" y="683" type="line"/>
      <point x="476" y="1042"/>
      <point x="560" y="1241"/>
      <point x="707" y="1241" type="curve" smooth="yes"/>
      <point x="847" y="1241"/>
      <point x="937" y="978"/>
    </contour>
  </outline>
</glyph>
<glyph name="pe-cy.sc" format="1">
  <advance width="1611"/>
  <outline>
    <contour>
      <point x="1043" y="0" type="move" name="bottomright"/>
    </contour>
    <contour>
      <point x="69" y="1292" type="line"/>
      <point x="69" y="1242" type="line"/>
      <point x="211" y="1228" type="line"/>
      <point x="211" y="66" type="line"/>
      <point x="72" y="52" type="line"/>
      <point x="72" y="0" type="line"/>
      <point x="733" y="0" type="line"/>
      <point x="733" y="52" type="line"/>
      <point x="595" y="66" type="line"/>
      <point x="595" y="1219" type="line"/>
      <point x="1018" y="1219" type="line"/>
      <point x="1018" y="69" type="line"/>
      <point x="887" y="52" type="line"/>
      <point x="887" y="0" type="line"/>
      <point x="1548" y="0" type="line"/>
      <point x="1548" y="52" type="line"/>
      <point x="1398" y="68" type="line"/>
      <point x="1398" y="1224" type="line"/>
      <point x="1540" y="1244" type="line"/>
      <point x="1540" y="1292" type="line"/>
    </contour>
  </outline>
</glyph>
<glyph name="pedescender-cy.sc" format="1">
  <advance width="1652"/>
  <outline>
    <contour>
      <point x="1609" y="68" type="curve"/>
      <point x="1398" y="68" type="line"/>
      <point x="1398" y="1224" type="line"/>
      <point x="1540" y="1244" type="line"/>
      <point x="1540" y="1292" type="line"/>
      <point x="69" y="1292" type="line"/>
      <point x="69" y="1242" type="line"/>
      <point x="211" y="1228" type="line"/>
      <point x="211" y="66" type="line"/>
      <point x="72" y="52" type="line"/>
      <point x="72" y="0" type="line"/>
      <point x="733" y="0" type="line"/>
      <point x="733" y="52" type="line"/>
      <point x="595" y="66" type="line"/>
      <point x="595" y="1219" type="line"/>
      <point x="1018" y="1219" type="line"/>
      <point x="1018" y="69" type="line"/>
      <point x="887" y="52" type="line"/>
      <point x="887" y="0" type="line"/>
      <point x="1294" y="0" type="line"/>
      <point x="1323" y="1"/>
      <point x="1363" y="-269"/>
      <point x="1365" y="-292" type="curve"/>
      <point x="1562" y="-292" type="line"/>
      <point x="1570" y="-299"/>
      <point x="1609" y="128"/>
    </contour>
  </outline>
</glyph>
<glyph name="pemiddlehook-cy.sc" format="1">
  <advance width="2259"/>
  <outline>
    <contour>
      <point x="767" y="-144" type="move" name="mark0"/>
    </contour>
    <contour>
      <point x="1398" y="685" type="curve"/>
      <point x="1398" y="1224" type="line"/>
      <point x="1540" y="1244" type="line"/>
      <point x="1540" y="1292" type="line"/>
      <point x="69" y="1292" type="line"/>
      <point x="69" y="1242" type="line"/>
      <point x="211" y="1228" type="line"/>
      <point x="211" y="66" type="line"/>
      <point x="72" y="52" type="line"/>
      <point x="72" y="0" type="line"/>
      <point x="733" y="0" type="line"/>
      <point x="733" y="52" type="line"/>
      <point x="595" y="66" type="line"/>
      <point x="595" y="1219" type="line"/>
      <point x="1018" y="1219" type="line"/>
      <point x="1018" y="69" type="line"/>
      <point x="887" y="52" type="line"/>
      <point x="887" y="0" type="line"/>
      <point x="1548" y="0" type="line"/>
      <point x="1548" y="52" type="line"/>
      <point x="1398" y="68" type="line"/>
      <point x="1398" y="628" type="line"/>
      <point x="1437" y="648"/>
      <point x="1513" y="661"/>
      <point x="1611" y="661" type="curve" smooth="yes"/>
      <point x="1762" y="661"/>
      <point x="1818" y="540"/>
      <point x="1818" y="311" type="curve" smooth="yes"/>
      <point x="1818" y="-64"/>
      <point x="1743" y="-260"/>
      <point x="1600" y="-260" type="curve" smooth="yes"/>
      <point x="1496" y="-260"/>
      <point x="1463" y="-267"/>
      <point x="1441" y="-262" type="curve"/>
      <point x="1457" y="-331" type="line"/>
      <point x="1488" y="-340"/>
      <point x="1554" y="-337"/>
      <point x="1656" y="-337" type="curve" smooth="yes"/>
      <point x="1977" y="-337"/>
      <point x="2199" y="-34"/>
      <point x="2199" y="302" type="curve" smooth="yes"/>
      <point x="2199" y="509"/>
      <point x="2007" y="737"/>
      <point x="1700" y="737" type="curve" smooth="yes"/>
      <point x="1598" y="737"/>
      <point x="1446" y="711"/>
    </contour>
  </outline>
</glyph>
<glyph name="reversedze-cy.sc" format="1">
  <advance width="1242"/>
  <outline>
    <contour>
      <point x="1147" y="46" type="curve"/>
      <point x="1146" y="248" type="line"/>
      <point x="958" y="266" type="line"/>
      <point x="869" y="120" type="line"/>
      <point x="844" y="80"/>
      <point x="778" y="49"/>
      <point x="706" y="49" type="curve" smooth="yes"/>
      <point x="560" y="49"/>
      <point x="503" y="139"/>
      <point x="503" y="338" type="curve" smooth="yes"/>
      <point x="503" y="469"/>
      <point x="547" y="640"/>
      <point x="720" y="640" type="curve"/>
      <point x="874" y="635" type="line"/>
      <point x="874" y="714" type="line"/>
      <point x="739" y="700" type="line"/>
      <point x="614" y="700"/>
      <point x="506" y="759"/>
      <point x="506" y="950" type="curve" smooth="yes"/>
      <point x="506" y="1131"/>
      <point x="597" y="1239"/>
      <point x="722" y="1239" type="curve" smooth="yes"/>
      <point x="808" y="1239"/>
      <point x="850" y="1205"/>
      <point x="861" y="1185" type="curve"/>
      <point x="916" y="1000" type="line"/>
      <point x="1122" y="1000" type="line"/>
      <point x="1146" y="1251" type="line"/>
      <point x="1064" y="1272"/>
      <point x="839" y="1306"/>
      <point x="672" y="1306" type="curve" smooth="yes"/>
      <point x="297" y="1306"/>
      <point x="106" y="1186"/>
      <point x="106" y="974" type="curve" smooth="yes"/>
      <point x="106" y="779"/>
      <point x="254" y="697"/>
      <point x="447" y="672" type="curve"/>
      <point x="204" y="662"/>
      <point x="69" y="518"/>
      <point x="69" y="323" type="curve" smooth="yes"/>
      <point x="69" y="111"/>
      <point x="186" y="-20"/>
      <point x="681" y="-20" type="curve" smooth="yes"/>
      <point x="918" y="-20"/>
      <point x="1049" y="43"/>
    </contour>
  </outline>
</glyph>
<glyph name="semisoftsign-cy.sc" format="1">
  <advance width="1374"/>
  <outline>
    <contour>
      <point x="594" y="792" type="curve"/>
      <point x="594" y="958" type="line"/>
      <point x="859" y="958" type="line"/>
      <point x="859" y="1025" type="line"/>
      <point x="594" y="1025" type="line"/>
      <point x="594" y="1227" type="line"/>
      <point x="803" y="1246" type="line"/>
      <point x="803" y="1292" type="line"/>
      <point x="73" y="1292" type="line"/>
      <point x="73" y="1246" type="line"/>
      <point x="211" y="1226" type="line"/>
      <point x="211" y="1025" type="line"/>
      <point x="45" y="1025" type="line"/>
      <point x="45" y="958" type="line"/>
      <point x="211" y="958" type="line"/>
      <point x="211" y="66" type="line"/>
      <point x="71" y="52" type="line"/>
      <point x="71" y="0" type="line"/>
      <point x="367" y="0" type="line" smooth="yes"/>
      <point x="549" y="0"/>
      <point x="666" y="-14"/>
      <point x="811" y="-14" type="curve" smooth="yes"/>
      <point x="1096" y="-14"/>
      <point x="1332" y="125"/>
      <point x="1332" y="408" type="curve" smooth="yes"/>
      <point x="1332" y="651"/>
      <point x="1176" y="791"/>
      <point x="841" y="791" type="curve"/>
      <point x="808" y="791"/>
      <point x="608" y="791"/>
    </contour>
    <contour>
      <point x="594" y="65" type="curve"/>
      <point x="594" y="719" type="line"/>
      <point x="604" y="718"/>
      <point x="710" y="716"/>
      <point x="727" y="716" type="curve" smooth="yes"/>
      <point x="874" y="716"/>
      <point x="935" y="614"/>
      <point x="935" y="402" type="curve" smooth="yes"/>
      <point x="935" y="148"/>
      <point x="894" y="50"/>
      <point x="705" y="50" type="curve" smooth="yes"/>
      <point x="660" y="50"/>
      <point x="623" y="57"/>
    </contour>
  </outline>
</glyph>
<glyph name="sha-cy.sc" format="1">
  <advance width="2315"/>
  <outline>
    <contour>
      <point x="723" y="-144" type="move" name="mark0"/>
    </contour>
    <contour>
      <point x="71" y="1292" type="line"/>
      <point x="71" y="1242" type="line"/>
      <point x="211" y="1227" type="line"/>
      <point x="211" y="68" type="line"/>
      <point x="65" y="52" type="line"/>
      <point x="65" y="0" type="line"/>
      <point x="2250" y="0" type="line"/>
      <point x="2250" y="52" type="line"/>
      <point x="2103" y="69" type="line"/>
      <point x="2103" y="1227" type="line"/>
      <point x="2244" y="1242" type="line"/>
      <point x="2244" y="1292" type="line"/>
      <point x="1591" y="1292" type="line"/>
      <point x="1591" y="1242" type="line"/>
      <point x="1723" y="1228" type="line"/>
      <point x="1723" y="66" type="line"/>
      <point x="1351" y="66" type="line"/>
      <point x="1351" y="1227" type="line"/>
      <point x="1487" y="1242" type="line"/>
      <point x="1487" y="1292" type="line"/>
      <point x="835" y="1292" type="line"/>
      <point x="835" y="1242" type="line"/>
      <point x="970" y="1227" type="line"/>
      <point x="970" y="66" type="line"/>
      <point x="594" y="66" type="line"/>
      <point x="594" y="1224" type="line"/>
      <point x="727" y="1242" type="line"/>
      <point x="727" y="1292" type="line"/>
    </contour>
  </outline>
</glyph>
<glyph name="shcha-cy.sc" format="1">
  <advance width="2369"/>
  <outline>
    <contour>
      <point x="2329" y="68" type="curve"/>
      <point x="2103" y="68" type="line"/>
      <point x="2103" y="1227" type="line"/>
      <point x="2244" y="1242" type="line"/>
      <point x="2244" y="1292" type="line"/>
      <point x="1591" y="1292" type="line"/>
      <point x="1591" y="1242" type="line"/>
      <point x="1723" y="1228" type="line"/>
      <point x="1723" y="66" type="line"/>
      <point x="1351" y="66" type="line"/>
      <point x="1351" y="1227" type="line"/>
      <point x="1487" y="1242" type="line"/>
      <point x="1487" y="1292" type="line"/>
      <point x="835" y="1292" type="line"/>
      <point x="835" y="1242" type="line"/>
      <point x="970" y="1227" type="line"/>
      <point x="970" y="66" type="line"/>
      <point x="594" y="66" type="line"/>
      <point x="594" y="1227" type="line"/>
      <point x="727" y="1242" type="line"/>
      <point x="727" y="1292" type="line"/>
      <point x="71" y="1292" type="line"/>
      <point x="71" y="1242" type="line"/>
      <point x="211" y="1227" type="line"/>
      <point x="211" y="68" type="line"/>
      <point x="65" y="52" type="line"/>
      <point x="65" y="0" type="line"/>
      <point x="2013" y="0" type="line"/>
      <point x="2042" y="5"/>
      <point x="2083" y="-277"/>
      <point x="2084" y="-292" type="curve"/>
      <point x="2280" y="-292" type="line"/>
      <point x="2290" y="-101"/>
      <point x="2327" y="-40"/>
    </contour>
  </outline>
</glyph>
<glyph name="shha-cy.sc" format="1">
  <advance width="1488"/>
  <outline>
    <contour>
      <point x="47" y="1124" type="move" name="topleft"/>
    </contour>
    <contour>
      <point x="742" y="476" type="move" name="center"/>
    </contour>
    <contour>
      <point x="766" y="-168" type="move" name="bottom"/>
    </contour>
    <contour>
      <point x="588" y="690" type="curve"/>
      <point x="588" y="1223" type="line"/>
      <point x="796" y="1240" type="line"/>
      <point x="796" y="1292" type="line"/>
      <point x="62" y="1292" type="line"/>
      <point x="62" y="1239" type="line"/>
      <point x="206" y="1223" type="line"/>
      <point x="206" y="67" type="line"/>
      <point x="64" y="50" type="line"/>
      <point x="64" y="0" type="line"/>
      <point x="730" y="0" type="line"/>
      <point x="730" y="50" type="line"/>
      <point x="588" y="65" type="line"/>
      <point x="588" y="635" type="line"/>
      <point x="625" y="661"/>
      <point x="700" y="691"/>
      <point x="778" y="691" type="curve" smooth="yes"/>
      <point x="940" y="691"/>
      <point x="966" y="641"/>
      <point x="966" y="322" type="curve" smooth="yes"/>
      <point x="966" y="68" type="line"/>
      <point x="845" y="50" type="line"/>
      <point x="845" y="0" type="line"/>
      <point x="1452" y="0" type="line"/>
      <point x="1452" y="50" type="line"/>
      <point x="1347" y="67" type="line"/>
      <point x="1347" y="364" type="line" smooth="yes"/>
      <point x="1347" y="615"/>
      <point x="1233" y="764"/>
      <point x="914" y="764" type="curve" smooth="yes"/>
      <point x="811" y="764"/>
      <point x="677" y="736"/>
    </contour>
  </outline>
</glyph>
<glyph name="shhadescender-cy.sc" format="1">
  <advance width="1613"/>
  <outline>
    <contour>
      <point x="67" y="1292" type="move" name="topleft"/>
    </contour>
    <contour>
      <point x="763" y="646" type="move" name="center"/>
    </contour>
    <contour>
      <point x="786" y="0" type="move" name="bottom"/>
    </contour>
    <contour>
      <point x="83" y="0" type="line"/>
      <point x="749" y="0" type="line"/>
      <point x="749" y="50" type="line"/>
      <point x="607" y="67" type="line"/>
      <point x="607" y="635" type="line"/>
      <point x="646" y="661"/>
      <point x="717" y="693"/>
      <point x="797" y="693" type="curve" smooth="yes"/>
      <point x="959" y="693"/>
      <point x="985" y="643"/>
      <point x="985" y="325" type="curve" smooth="yes"/>
      <point x="985" y="70" type="line"/>
      <point x="865" y="52" type="line"/>
      <point x="865" y="0" type="line"/>
      <point x="1257" y="0" type="line"/>
      <point x="1286" y="0"/>
      <point x="1323" y="-273"/>
      <point x="1327" y="-292" type="curve"/>
      <point x="1524" y="-292" type="line"/>
      <point x="1534" y="-299"/>
      <point x="1572" y="130"/>
      <point x="1572" y="68" type="curve"/>
      <point x="1369" y="69" type="line"/>
      <point x="1369" y="364" type="line"/>
      <point x="1369" y="670"/>
      <point x="1249" y="764"/>
      <point x="933" y="764" type="curve" smooth="yes"/>
      <point x="822" y="764"/>
      <point x="693" y="739"/>
      <point x="607" y="692" type="curve"/>
      <point x="607" y="1227" type="line"/>
      <point x="815" y="1240" type="line"/>
      <point x="815" y="1292" type="line"/>
      <point x="84" y="1292" type="line"/>
      <point x="84" y="1242" type="line"/>
      <point x="227" y="1227" type="line"/>
      <point x="227" y="66" type="line"/>
      <point x="83" y="50" type="line"/>
    </contour>
  </outline>
</glyph>
<glyph name="softsign-cy.sc" format="1">
  <advance width="1372"/>
  <outline>
    <contour>
      <point x="594" y="792" type="curve"/>
      <point x="594" y="1227" type="line"/>
      <point x="801" y="1246" type="line"/>
      <point x="801" y="1292" type="line"/>
      <point x="73" y="1292" type="line"/>
      <point x="73" y="1246" type="line"/>
      <point x="211" y="1226" type="line"/>
      <point x="211" y="66" type="line"/>
      <point x="70" y="52" type="line"/>
      <point x="70" y="0" type="line"/>
      <point x="367" y="0" type="line"/>
      <point x="550" y="0"/>
      <point x="666" y="-14"/>
      <point x="811" y="-14" type="curve" smooth="yes"/>
      <point x="1094" y="-14"/>
      <point x="1330" y="122"/>
      <point x="1330" y="408" type="curve" smooth="yes"/>
      <point x="1330" y="651"/>
      <point x="1176" y="791"/>
      <point x="840" y="791" type="curve" smooth="yes"/>
      <point x="805" y="791"/>
      <point x="608" y="791"/>
    </contour>
    <contour>
      <point x="594" y="65" type="curve"/>
      <point x="594" y="719" type="line"/>
      <point x="602" y="718"/>
      <point x="708" y="716"/>
      <point x="726" y="716" type="curve" smooth="yes"/>
      <point x="874" y="716"/>
      <point x="935" y="614"/>
      <point x="935" y="402" type="curve" smooth="yes"/>
      <point x="935" y="148"/>
      <point x="892" y="50"/>
      <point x="704" y="50" type="curve" smooth="yes"/>
      <point x="660" y="50"/>
      <point x="622" y="57"/>
    </contour>
  </outline>
</glyph>
<glyph name="tedescender-cy.sc" format="1">
  <advance width="1482"/>
  <outline>
    <contour>
      <point x="1262" y="68" type="curve"/>
      <point x="945" y="68" type="line"/>
      <point x="945" y="1240" type="line"/>
      <point x="1134" y="1230" type="line"/>
      <point x="1226" y="897" type="line"/>
      <point x="1420" y="897" type="line"/>
      <point x="1394" y="1292" type="line"/>
      <point x="98" y="1292" type="line"/>
      <point x="67" y="897" type="line"/>
      <point x="271" y="897" type="line"/>
      <point x="363" y="1230" type="line"/>
      <point x="559" y="1240" type="line"/>
      <point x="559" y="68" type="line"/>
      <point x="318" y="52" type="line"/>
      <point x="318" y="0" type="line"/>
      <point x="980" y="0" type="line"/>
      <point x="997" y="-115"/>
      <point x="1014" y="-167"/>
      <point x="1014" y="-292" type="curve"/>
      <point x="1211" y="-292" type="line"/>
      <point x="1220" y="-112"/>
      <point x="1259" y="-84"/>
    </contour>
  </outline>
</glyph>
<glyph name="tetse-cy.sc" format="1">
  <advance width="2220"/>
  <outline>
    <contour>
      <point x="2210" y="68" type="curve"/>
      <point x="1983" y="68" type="line"/>
      <point x="1983" y="1228" type="line"/>
      <point x="2123" y="1242" type="line"/>
      <point x="2123" y="1292" type="line"/>
      <point x="1468" y="1292" type="line"/>
      <point x="1468" y="1242" type="line"/>
      <point x="1606" y="1228" type="line"/>
      <point x="1606" y="73" type="line"/>
      <point x="897" y="73" type="line"/>
      <point x="897" y="1233" type="line"/>
      <point x="1085" y="1228" type="line"/>
      <point x="1164" y="909" type="line"/>
      <point x="1347" y="909" type="line"/>
      <point x="1312" y="1292" type="line"/>
      <point x="77" y="1292" type="line"/>
      <point x="56" y="910" type="line"/>
      <point x="238" y="910" type="line"/>
      <point x="304" y="1228" type="line"/>
      <point x="514" y="1231" type="line"/>
      <point x="514" y="66" type="line"/>
      <point x="300" y="52" type="line"/>
      <point x="300" y="0" type="line"/>
      <point x="1889" y="0" type="line"/>
      <point x="1915" y="5"/>
      <point x="1964" y="-256"/>
      <point x="1964" y="-284" type="curve"/>
      <point x="2163" y="-284" type="line"/>
      <point x="2172" y="-108"/>
      <point x="2208" y="-58"/>
    </contour>
  </outline>
</glyph>
<glyph name="tse-cy.sc" format="1">
  <advance width="1649"/>
  <outline>
    <contour>
      <point x="1608" y="68" type="curve"/>
      <point x="1396" y="68" type="line"/>
      <point x="1396" y="1227" type="line"/>
      <point x="1537" y="1242" type="line"/>
      <point x="1537" y="1292" type="line"/>
      <point x="878" y="1292" type="line"/>
      <point x="878" y="1242" type="line"/>
      <point x="1015" y="1227" type="line"/>
      <point x="1015" y="73" type="line"/>
      <point x="594" y="73" type="line"/>
      <point x="594" y="1228" type="line"/>
      <point x="753" y="1242" type="line"/>
      <point x="753" y="1292" type="line"/>
      <point x="71" y="1292" type="line"/>
      <point x="71" y="1242" type="line"/>
      <point x="211" y="1227" type="line"/>
      <point x="211" y="71" type="line"/>
      <point x="65" y="51" type="line"/>
      <point x="65" y="0" type="line"/>
      <point x="1293" y="0" type="line"/>
      <point x="1322" y="1"/>
      <point x="1360" y="-279"/>
      <point x="1363" y="-292" type="curve"/>
      <point x="1560" y="-292" type="line"/>
      <point x="1569" y="-301"/>
      <point x="1608" y="130"/>
    </contour>
  </outline>
</glyph>
<glyph name="tshe-cy.sc" format="1">
  <advance width="1878"/>
  <outline>
    <contour>
      <point x="758" y="-144" type="move" name="mark0"/>
    </contour>
    <contour>
      <point x="929" y="656" type="curve"/>
      <point x="929" y="1238" type="line"/>
      <point x="1172" y="1229" type="line"/>
      <point x="1257" y="892" type="line"/>
      <point x="1444" y="892" type="line"/>
      <point x="1410" y="1292" type="line"/>
      <point x="72" y="1292" type="line"/>
      <point x="45" y="892" type="line"/>
      <point x="243" y="892" type="line"/>
      <point x="305" y="1227" type="line"/>
      <point x="545" y="1237" type="line"/>
      <point x="545" y="68" type="line"/>
      <point x="309" y="52" type="line"/>
      <point x="309" y="0" type="line"/>
      <point x="1086" y="0" type="line"/>
      <point x="1086" y="52" type="line"/>
      <point x="929" y="68" type="line"/>
      <point x="929" y="601" type="line"/>
      <point x="974" y="637"/>
      <point x="1045" y="668"/>
      <point x="1155" y="668" type="curve" smooth="yes"/>
      <point x="1319" y="668"/>
      <point x="1335" y="488"/>
      <point x="1335" y="308" type="curve" smooth="yes"/>
      <point x="1335" y="66" type="line"/>
      <point x="1219" y="52" type="line"/>
      <point x="1219" y="0" type="line"/>
      <point x="1848" y="0" type="line"/>
      <point x="1848" y="52" type="line"/>
      <point x="1715" y="66" type="line"/>
      <point x="1715" y="354" type="line" smooth="yes"/>
      <point x="1715" y="603"/>
      <point x="1623" y="737"/>
      <point x="1268" y="737" type="curve" smooth="yes"/>
      <point x="1142" y="737"/>
      <point x="1024" y="700"/>
    </contour>
  </outline>
</glyph>
<glyph name="u-cy.sc" format="1">
  <advance width="1377"/>
  <outline>
    <contour>
      <point x="702" y="1263" type="move" name="top"/>
    </contour>
    <contour>
      <point x="897" y="257" type="curve"/>
      <point x="1246" y="1229" type="line"/>
      <point x="1347" y="1242" type="line"/>
      <point x="1347" y="1292" type="line"/>
      <point x="899" y="1292" type="line"/>
      <point x="899" y="1242" type="line"/>
      <point x="1029" y="1227" type="line"/>
      <point x="852" y="535" type="line"/>
      <point x="805" y="353" type="line"/>
      <point x="756" y="533" type="line"/>
      <point x="553" y="1229" type="line"/>
      <point x="710" y="1242" type="line"/>
      <point x="710" y="1292" type="line"/>
      <point x="30" y="1292" type="line"/>
      <point x="30" y="1242" type="line"/>
      <point x="134" y="1227" type="line"/>
      <point x="557" y="289" type="line"/>
      <point x="547" y="146"/>
      <point x="512" y="90"/>
      <point x="386" y="90" type="curve" smooth="yes"/>
      <point x="338" y="90"/>
      <point x="287" y="93"/>
      <point x="242" y="96" type="curve"/>
      <point x="242" y="9" type="line"/>
      <point x="290" y="-7"/>
      <point x="402" y="-20"/>
      <point x="495" y="-20" type="curve" smooth="yes"/>
      <point x="742" y="-20"/>
      <point x="825" y="178"/>
    </contour>
  </outline>
</glyph>
<glyph name="ustraitstroke-cy.sc" format="1">
  <advance width="1421"/>
  <outline>
    <contour>
      <point x="110" y="1292" type="move" name="topleft"/>
    </contour>
    <contour>
      <point x="710" y="471" type="move" name="center"/>
    </contour>
    <contour>
      <point x="708" y="0" type="move" name="bottom"/>
    </contour>
    <contour>
      <point x="764" y="1292" type="move" name="top"/>
    </contour>
    <contour>
      <point x="710" y="471" type="move" name="_center"/>
    </contour>
    <contour>
      <point x="583" y="-144" type="move" name="mark0"/>
    </contour>
    <contour>
      <point x="514" y="69" type="line"/>
      <point x="322" y="52" type="line"/>
      <point x="322" y="0" type="line"/>
      <point x="1122" y="0" type="line"/>
      <point x="1122" y="52" type="line"/>
      <point x="924" y="69" type="line"/>
      <point x="924" y="482" type="line"/>
      <point x="1277" y="1225" type="line"/>
      <point x="1391" y="1242" type="line"/>
      <point x="1391" y="1292" type="line"/>
      <point x="878" y="1292" type="line"/>
      <point x="878" y="1242" type="line"/>
      <point x="1020" y="1229" type="line"/>
      <point x="847" y="683" type="line"/>
      <point x="805" y="530" type="line"/>
      <point x="763" y="683" type="line"/>
      <point x="568" y="1229" type="line"/>
      <point x="682" y="1242" type="line"/>
      <point x="682" y="1292" type="line"/>
      <point x="30" y="1292" type="line"/>
      <point x="30" y="1242" type="line"/>
      <point x="131" y="1224" type="line"/>
      <point x="514" y="480" type="line"/>
    </contour>
    <contour>
      <point x="1114" y="513" type="line"/>
      <point x="313" y="513" type="line"/>
      <point x="313" y="453" type="line"/>
      <point x="1114" y="453" type="line"/>
    </contour>
  </outline>
</glyph>
<glyph name="yat-cy.sc" format="1">
  <advance width="1641"/>
  <outline>
    <contour>
      <point x="879" y="675" type="curve"/>
      <point x="879" y="1066" type="line"/>
      <point x="1129" y="1048" type="line"/>
      <point x="1185" y="893" type="line"/>
      <point x="1389" y="893" type="line"/>
      <point x="1355" y="1114" type="line"/>
      <point x="879" y="1114" type="line"/>
      <point x="879" y="1292" type="line"/>
      <point x="1045" y="1314" type="line"/>
      <point x="1045" y="1356" type="line"/>
      <point x="345" y="1356" type="line"/>
      <point x="345" y="1314" type="line"/>
      <point x="496" y="1293" type="line"/>
      <point x="496" y="1114" type="line"/>
      <point x="40" y="1114" type="line"/>
      <point x="13" y="893" type="line"/>
      <point x="181" y="893" type="line"/>
      <point x="242" y="1048" type="line"/>
      <point x="496" y="1066" type="line"/>
      <point x="496" y="66" type="line"/>
      <point x="306" y="52" type="line"/>
      <point x="306" y="0" type="line"/>
      <point x="714" y="0" type="line" smooth="yes"/>
      <point x="787" y="0"/>
      <point x="1028" y="-15"/>
      <point x="1064" y="-15" type="curve" smooth="yes"/>
      <point x="1400" y="-15"/>
      <point x="1599" y="128"/>
      <point x="1599" y="351" type="curve" smooth="yes"/>
      <point x="1599" y="533"/>
      <point x="1453" y="693"/>
      <point x="1124" y="693" type="curve" smooth="yes"/>
      <point x="994" y="693"/>
      <point x="918" y="681"/>
    </contour>
    <contour>
      <point x="879" y="70" type="curve"/>
      <point x="879" y="617" type="line"/>
      <point x="907" y="625"/>
      <point x="956" y="626"/>
      <point x="1008" y="626" type="curve" smooth="yes"/>
      <point x="1162" y="626"/>
      <point x="1218" y="523"/>
      <point x="1218" y="343" type="curve" smooth="yes"/>
      <point x="1218" y="150"/>
      <point x="1143" y="49"/>
      <point x="958" y="49" type="curve" smooth="yes"/>
      <point x="920" y="49"/>
      <point x="901" y="59"/>
    </contour>
  </outline>
</glyph>
<glyph name="yeru-cy.sc" format="1">
  <advance width="2168"/>
  <outline>
    <contour>
      <point x="1085" y="1263" type="move" name="top"/>
    </contour>
    <contour>
      <point x="594" y="792" type="curve"/>
      <point x="594" y="1227" type="line"/>
      <point x="801" y="1246" type="line"/>
      <point x="801" y="1292" type="line"/>
      <point x="73" y="1292" type="line"/>
      <point x="73" y="1246" type="line"/>
      <point x="211" y="1226" type="line"/>
      <point x="211" y="66" type="line"/>
      <point x="70" y="52" type="line"/>
      <point x="70" y="0" type="line"/>
      <point x="367" y="0" type="line" smooth="yes"/>
      <point x="550" y="0"/>
      <point x="666" y="-14"/>
      <point x="811" y="-14" type="curve" smooth="yes"/>
      <point x="1094" y="-14"/>
      <point x="1330" y="122"/>
      <point x="1330" y="408" type="curve" smooth="yes"/>
      <point x="1330" y="651"/>
      <point x="1176" y="791"/>
      <point x="840" y="791" type="curve" smooth="yes"/>
      <point x="805" y="791"/>
      <point x="608" y="791"/>
    </contour>
    <contour>
      <point x="594" y="65" type="curve"/>
      <point x="594" y="719" type="line"/>
      <point x="602" y="718"/>
      <point x="708" y="716"/>
      <point x="726" y="716" type="curve" smooth="yes"/>
      <point x="874" y="716"/>
      <point x="935" y="614"/>
      <point x="935" y="402" type="curve" smooth="yes"/>
      <point x="935" y="148"/>
      <point x="892" y="50"/>
      <point x="704" y="50" type="curve" smooth="yes"/>
      <point x="660" y="50"/>
      <point x="622" y="57"/>
    </contour>
    <contour>
      <point x="1408" y="1292" type="line"/>
      <point x="1408" y="1242" type="line"/>
      <point x="1554" y="1228" type="line"/>
      <point x="1554" y="68" type="line"/>
      <point x="1410" y="52" type="line"/>
      <point x="1410" y="0" type="line"/>
      <point x="2091" y="0" type="line"/>
      <point x="2091" y="53" type="line"/>
      <point x="1940" y="66" type="line"/>
      <point x="1940" y="1228" type="line"/>
      <point x="2091" y="1242" type="line"/>
      <point x="2091" y="1292" type="line"/>
    </contour>
  </outline>
</glyph>
<glyph name="yusbig-cy.sc" format="1">
  <advance width="2155"/>
  <outline>
    <contour>
      <point x="855" y="601" type="curve" smooth="yes"/>
      <point x="896" y="601" type="line"/>
      <point x="896" y="68" type="line"/>
      <point x="730" y="52" type="line"/>
      <point x="730" y="0" type="line"/>
      <point x="1435" y="0" type="line"/>
      <point x="1435" y="53" type="line"/>
      <point x="1263" y="68" type="line"/>
      <point x="1263" y="601" type="line"/>
      <point x="1302" y="601" type="line" smooth="yes"/>
      <point x="1520" y="601"/>
      <point x="1565" y="0"/>
      <point x="1728" y="0" type="curve" smooth="yes"/>
      <point x="2121" y="0" type="line"/>
      <point x="2121" y="52" type="line"/>
      <point x="2040" y="68" type="line" smooth="yes"/>
      <point x="1947" y="90"/>
      <point x="1867" y="663"/>
      <point x="1472" y="663" type="curve" smooth="yes"/>
      <point x="1322" y="663" type="line"/>
      <point x="1795" y="1234" type="line"/>
      <point x="1785" y="1292" type="line"/>
      <point x="372" y="1292" type="line"/>
      <point x="363" y="1234" type="line"/>
      <point x="835" y="663" type="line"/>
      <point x="686" y="663" type="line" smooth="yes"/>
      <point x="291" y="663"/>
      <point x="211" y="90"/>
      <point x="117" y="68" type="curve" smooth="yes"/>
      <point x="38" y="52" type="line"/>
      <point x="38" y="0" type="line"/>
      <point x="430" y="0" type="line" smooth="yes"/>
      <point x="595" y="0"/>
      <point x="638" y="601"/>
    </contour>
    <contour>
      <point x="715" y="1232" type="line"/>
      <point x="1442" y="1232" type="line"/>
      <point x="1077" y="661" type="line"/>
    </contour>
  </outline>
</glyph>
<glyph name="ze-cy.sc" format="1">
  <advance width="1257"/>
  <outline>
    <contour>
      <point x="629" y="1263" type="move" name="top"/>
    </contour>
    <contour>
      <point x="629" y="0" type="move" name="bottom"/>
    </contour>
    <contour>
      <point x="110" y="1246" type="curve"/>
      <point x="144" y="1009" type="line"/>
      <point x="351" y="1009" type="line"/>
      <point x="395" y="1154" type="line"/>
      <point x="406" y="1207"/>
      <point x="451" y="1236"/>
      <point x="545" y="1236" type="curve" smooth="yes"/>
      <point x="659" y="1236"/>
      <point x="747" y="1169"/>
      <point x="748" y="988" type="curve" smooth="yes"/>
      <point x="748" y="796"/>
      <point x="643" y="691"/>
      <point x="517" y="691" type="curve" smooth="yes"/>
      <point x="418" y="691" type="line"/>
      <point x="418" y="630" type="line"/>
      <point x="534" y="630" type="line" smooth="yes"/>
      <point x="708" y="630"/>
      <point x="751" y="488"/>
      <point x="751" y="356" type="curve" smooth="yes"/>
      <point x="751" y="148"/>
      <point x="696" y="69"/>
      <point x="567" y="69" type="curve" smooth="yes"/>
      <point x="479" y="69"/>
      <point x="425" y="86"/>
      <point x="398" y="112" type="curve"/>
      <point x="331" y="312" type="line"/>
      <point x="144" y="312" type="line"/>
      <point x="94" y="52" type="line"/>
      <point x="192" y="21"/>
      <point x="310" y="-10"/>
      <point x="548" y="-10" type="curve" smooth="yes"/>
      <point x="1044" y="-10"/>
      <point x="1186" y="134"/>
      <point x="1186" y="369" type="curve" smooth="yes"/>
      <point x="1186" y="537"/>
      <point x="1053" y="678"/>
      <point x="808" y="682" type="curve"/>
      <point x="980" y="712"/>
      <point x="1150" y="822"/>
      <point x="1150" y="1016" type="curve" smooth="yes"/>
      <point x="1150" y="1216"/>
      <point x="944" y="1306"/>
      <point x="585" y="1306" type="curve" smooth="yes"/>
      <point x="441" y="1306"/>
      <point x="190" y="1254"/>
    </contour>
  </outline>
</glyph>
<glyph name="zhe-cy.sc" format="1">
  <advance width="2099"/>
  <outline>
    <contour>
      <point x="1049" y="1263" type="move" name="top"/>
    </contour>
    <contour>
      <point x="2047" y="0" type="move" name="bottomright"/>
    </contour>
    <contour>
      <point x="1556" y="645" type="curve"/>
      <point x="1889" y="1228" type="line"/>
      <point x="2058" y="1242" type="line"/>
      <point x="2058" y="1292" type="line"/>
      <point x="1507" y="1292" type="line"/>
      <point x="1507" y="1242" type="line"/>
      <point x="1627" y="1224" type="line"/>
      <point x="1347" y="661" type="line"/>
      <point x="1234" y="661" type="line"/>
      <point x="1234" y="1227" type="line"/>
      <point x="1388" y="1242" type="line"/>
      <point x="1388" y="1292" type="line"/>
      <point x="713" y="1292" type="line"/>
      <point x="713" y="1242" type="line"/>
      <point x="867" y="1227" type="line"/>
      <point x="867" y="661" type="line"/>
      <point x="751" y="661" type="line"/>
      <point x="471" y="1227" type="line"/>
      <point x="592" y="1242" type="line"/>
      <point x="592" y="1292" type="line"/>
      <point x="47" y="1292" type="line"/>
      <point x="47" y="1242" type="line"/>
      <point x="209" y="1228" type="line"/>
      <point x="542" y="652" type="line"/>
      <point x="250" y="576"/>
      <point x="170" y="88"/>
      <point x="73" y="68" type="curve" smooth="yes"/>
      <point x="9" y="52" type="line"/>
      <point x="9" y="0" type="line"/>
      <point x="387" y="0" type="line" smooth="yes"/>
      <point x="552" y="0"/>
      <point x="609" y="601"/>
      <point x="826" y="601" type="curve" smooth="yes"/>
      <point x="867" y="601" type="line"/>
      <point x="867" y="68" type="line"/>
      <point x="701" y="52" type="line"/>
      <point x="701" y="0" type="line"/>
      <point x="1406" y="0" type="line"/>
      <point x="1406" y="53" type="line"/>
      <point x="1234" y="68" type="line"/>
      <point x="1234" y="601" type="line"/>
      <point x="1273" y="601" type="line" smooth="yes"/>
      <point x="1491" y="601"/>
      <point x="1536" y="0"/>
      <point x="1697" y="0" type="curve"/>
      <point x="2092" y="0" type="line"/>
      <point x="2092" y="52" type="line"/>
      <point x="2022" y="68" type="line" smooth="yes"/>
      <point x="1926" y="88"/>
      <point x="1848" y="569"/>
    </contour>
  </outline>
</glyph>
<glyph name="zhedescender-cy.sc" format="1">
  <advance width="2146"/>
  <outline>
    <contour>
      <point x="1557" y="649" type="curve"/>
      <point x="1889" y="1228" type="line"/>
      <point x="2058" y="1242" type="line"/>
      <point x="2058" y="1292" type="line"/>
      <point x="1507" y="1292" type="line"/>
      <point x="1507" y="1242" type="line"/>
      <point x="1627" y="1224" type="line"/>
      <point x="1347" y="661" type="line"/>
      <point x="1234" y="661" type="line"/>
      <point x="1234" y="1227" type="line"/>
      <point x="1388" y="1242" type="line"/>
      <point x="1388" y="1292" type="line"/>
      <point x="713" y="1292" type="line"/>
      <point x="713" y="1242" type="line"/>
      <point x="867" y="1227" type="line"/>
      <point x="867" y="661" type="line"/>
      <point x="751" y="661" type="line"/>
      <point x="471" y="1227" type="line"/>
      <point x="592" y="1242" type="line"/>
      <point x="592" y="1292" type="line"/>
      <point x="47" y="1292" type="line"/>
      <point x="47" y="1242" type="line"/>
      <point x="209" y="1228" type="line"/>
      <point x="542" y="652" type="line"/>
      <point x="250" y="576"/>
      <point x="181" y="90"/>
      <point x="88" y="68" type="curve" smooth="yes"/>
      <point x="9" y="52" type="line"/>
      <point x="9" y="0" type="line"/>
      <point x="400" y="0" type="line" smooth="yes"/>
      <point x="566" y="0"/>
      <point x="609" y="601"/>
      <point x="826" y="601" type="curve" smooth="yes"/>
      <point x="867" y="601" type="line"/>
      <point x="867" y="68" type="line"/>
      <point x="701" y="52" type="line"/>
      <point x="701" y="0" type="line"/>
      <point x="1406" y="0" type="line"/>
      <point x="1406" y="53" type="line"/>
      <point x="1234" y="68" type="line"/>
      <point x="1234" y="601" type="line"/>
      <point x="1273" y="601" type="line" smooth="yes"/>
      <point x="1491" y="601"/>
      <point x="1535" y="0"/>
      <point x="1698" y="0" type="curve" smooth="yes"/>
      <point x="1820" y="0" type="line"/>
      <point x="1853" y="-7"/>
      <point x="1891" y="-272"/>
      <point x="1891" y="-292" type="curve"/>
      <point x="2088" y="-292" type="line"/>
      <point x="2097" y="-293"/>
      <point x="2136" y="123"/>
      <point x="2136" y="68" type="curve"/>
      <point x="2010" y="68" type="line"/>
      <point x="1918" y="103"/>
      <point x="1849" y="573"/>
    </contour>
  </outline>
</glyph>
